<?xml version="1.0" encoding="utf-8" standalone="no"?>
<!DOCTYPE svg PUBLIC "-//W3C//DTD SVG 1.1//EN"
  "http://www.w3.org/Graphics/SVG/1.1/DTD/svg11.dtd">
<svg xmlns:xlink="http://www.w3.org/1999/xlink" width="460.8pt" height="345.6pt" viewBox="0 0 460.8 345.6" xmlns="http://www.w3.org/2000/svg" version="1.1">
 <metadata>
  <rdf:RDF xmlns:dc="http://purl.org/dc/elements/1.1/" xmlns:cc="http://creativecommons.org/ns#" xmlns:rdf="http://www.w3.org/1999/02/22-rdf-syntax-ns#">
   <cc:Work>
    <dc:type rdf:resource="http://purl.org/dc/dcmitype/StillImage"/>
    <dc:date>2026-03-04T17:04:19.399693</dc:date>
    <dc:format>image/svg+xml</dc:format>
    <dc:creator>
     <cc:Agent>
      <dc:title>Matplotlib v3.10.8, https://matplotlib.org/</dc:title>
     </cc:Agent>
    </dc:creator>
   </cc:Work>
  </rdf:RDF>
 </metadata>
 <defs>
  <style type="text/css">*{stroke-linejoin: round; stroke-linecap: butt}</style>
 </defs>
 <g id="figure_1">
  <g id="patch_1">
   <path d="M 0 345.6 
L 460.8 345.6 
L 460.8 0 
L 0 0 
z
" style="fill: #ffffff"/>
  </g>
  <g id="axes_1">
   <g id="patch_2">
    <path d="M 57.6 307.584 
L 414.72 307.584 
L 414.72 41.472 
L 57.6 41.472 
z
" style="fill: #ffffff"/>
   </g>
   <g id="matplotlib.axis_1">
    <g id="xtick_1">
     <g id="line2d_1">
      <path d="M 67.854991 307.584 
L 67.854991 41.472 
" clip-path="url(#pd17522ebb4)" style="fill: none; stroke: #b0b0b0; stroke-width: 0.8; stroke-linecap: square"/>
     </g>
     <g id="line2d_2">
      <defs>
       <path id="m3f09ea36d5" d="M 0 0 
L 0 3.5 
" style="stroke: #000000; stroke-width: 0.8"/>
      </defs>
      <g>
       <use xlink:href="#m3f09ea36d5" x="67.854991" y="307.584" style="stroke: #000000; stroke-width: 0.8"/>
      </g>
     </g>
     <g id="text_1">
      <!-- 0 -->
      <g transform="translate(64.673741 322.182437) scale(0.1 -0.1)">
       <defs>
        <path id="DejaVuSans-30" d="M 2034 4250 
Q 1547 4250 1301 3770 
Q 1056 3291 1056 2328 
Q 1056 1369 1301 889 
Q 1547 409 2034 409 
Q 2525 409 2770 889 
Q 3016 1369 3016 2328 
Q 3016 3291 2770 3770 
Q 2525 4250 2034 4250 
z
M 2034 4750 
Q 2819 4750 3233 4129 
Q 3647 3509 3647 2328 
Q 3647 1150 3233 529 
Q 2819 -91 2034 -91 
Q 1250 -91 836 529 
Q 422 1150 422 2328 
Q 422 3509 836 4129 
Q 1250 4750 2034 4750 
z
" transform="scale(0.015625)"/>
       </defs>
       <use xlink:href="#DejaVuSans-30"/>
      </g>
     </g>
    </g>
    <g id="xtick_2">
     <g id="line2d_3">
      <path d="M 127.752144 307.584 
L 127.752144 41.472 
" clip-path="url(#pd17522ebb4)" style="fill: none; stroke: #b0b0b0; stroke-width: 0.8; stroke-linecap: square"/>
     </g>
     <g id="line2d_4">
      <g>
       <use xlink:href="#m3f09ea36d5" x="127.752144" y="307.584" style="stroke: #000000; stroke-width: 0.8"/>
      </g>
     </g>
     <g id="text_2">
      <!-- 1000 -->
      <g transform="translate(115.027144 322.182437) scale(0.1 -0.1)">
       <defs>
        <path id="DejaVuSans-31" d="M 794 531 
L 1825 531 
L 1825 4091 
L 703 3866 
L 703 4441 
L 1819 4666 
L 2450 4666 
L 2450 531 
L 3481 531 
L 3481 0 
L 794 0 
L 794 531 
z
" transform="scale(0.015625)"/>
       </defs>
       <use xlink:href="#DejaVuSans-31"/>
       <use xlink:href="#DejaVuSans-30" transform="translate(63.623047 0)"/>
       <use xlink:href="#DejaVuSans-30" transform="translate(127.246094 0)"/>
       <use xlink:href="#DejaVuSans-30" transform="translate(190.869141 0)"/>
      </g>
     </g>
    </g>
    <g id="xtick_3">
     <g id="line2d_5">
      <path d="M 187.649296 307.584 
L 187.649296 41.472 
" clip-path="url(#pd17522ebb4)" style="fill: none; stroke: #b0b0b0; stroke-width: 0.8; stroke-linecap: square"/>
     </g>
     <g id="line2d_6">
      <g>
       <use xlink:href="#m3f09ea36d5" x="187.649296" y="307.584" style="stroke: #000000; stroke-width: 0.8"/>
      </g>
     </g>
     <g id="text_3">
      <!-- 2000 -->
      <g transform="translate(174.924296 322.182437) scale(0.1 -0.1)">
       <defs>
        <path id="DejaVuSans-32" d="M 1228 531 
L 3431 531 
L 3431 0 
L 469 0 
L 469 531 
Q 828 903 1448 1529 
Q 2069 2156 2228 2338 
Q 2531 2678 2651 2914 
Q 2772 3150 2772 3378 
Q 2772 3750 2511 3984 
Q 2250 4219 1831 4219 
Q 1534 4219 1204 4116 
Q 875 4013 500 3803 
L 500 4441 
Q 881 4594 1212 4672 
Q 1544 4750 1819 4750 
Q 2544 4750 2975 4387 
Q 3406 4025 3406 3419 
Q 3406 3131 3298 2873 
Q 3191 2616 2906 2266 
Q 2828 2175 2409 1742 
Q 1991 1309 1228 531 
z
" transform="scale(0.015625)"/>
       </defs>
       <use xlink:href="#DejaVuSans-32"/>
       <use xlink:href="#DejaVuSans-30" transform="translate(63.623047 0)"/>
       <use xlink:href="#DejaVuSans-30" transform="translate(127.246094 0)"/>
       <use xlink:href="#DejaVuSans-30" transform="translate(190.869141 0)"/>
      </g>
     </g>
    </g>
    <g id="xtick_4">
     <g id="line2d_7">
      <path d="M 247.546449 307.584 
L 247.546449 41.472 
" clip-path="url(#pd17522ebb4)" style="fill: none; stroke: #b0b0b0; stroke-width: 0.8; stroke-linecap: square"/>
     </g>
     <g id="line2d_8">
      <g>
       <use xlink:href="#m3f09ea36d5" x="247.546449" y="307.584" style="stroke: #000000; stroke-width: 0.8"/>
      </g>
     </g>
     <g id="text_4">
      <!-- 3000 -->
      <g transform="translate(234.821449 322.182437) scale(0.1 -0.1)">
       <defs>
        <path id="DejaVuSans-33" d="M 2597 2516 
Q 3050 2419 3304 2112 
Q 3559 1806 3559 1356 
Q 3559 666 3084 287 
Q 2609 -91 1734 -91 
Q 1441 -91 1130 -33 
Q 819 25 488 141 
L 488 750 
Q 750 597 1062 519 
Q 1375 441 1716 441 
Q 2309 441 2620 675 
Q 2931 909 2931 1356 
Q 2931 1769 2642 2001 
Q 2353 2234 1838 2234 
L 1294 2234 
L 1294 2753 
L 1863 2753 
Q 2328 2753 2575 2939 
Q 2822 3125 2822 3475 
Q 2822 3834 2567 4026 
Q 2313 4219 1838 4219 
Q 1578 4219 1281 4162 
Q 984 4106 628 3988 
L 628 4550 
Q 988 4650 1302 4700 
Q 1616 4750 1894 4750 
Q 2613 4750 3031 4423 
Q 3450 4097 3450 3541 
Q 3450 3153 3228 2886 
Q 3006 2619 2597 2516 
z
" transform="scale(0.015625)"/>
       </defs>
       <use xlink:href="#DejaVuSans-33"/>
       <use xlink:href="#DejaVuSans-30" transform="translate(63.623047 0)"/>
       <use xlink:href="#DejaVuSans-30" transform="translate(127.246094 0)"/>
       <use xlink:href="#DejaVuSans-30" transform="translate(190.869141 0)"/>
      </g>
     </g>
    </g>
    <g id="xtick_5">
     <g id="line2d_9">
      <path d="M 307.443601 307.584 
L 307.443601 41.472 
" clip-path="url(#pd17522ebb4)" style="fill: none; stroke: #b0b0b0; stroke-width: 0.8; stroke-linecap: square"/>
     </g>
     <g id="line2d_10">
      <g>
       <use xlink:href="#m3f09ea36d5" x="307.443601" y="307.584" style="stroke: #000000; stroke-width: 0.8"/>
      </g>
     </g>
     <g id="text_5">
      <!-- 4000 -->
      <g transform="translate(294.718601 322.182437) scale(0.1 -0.1)">
       <defs>
        <path id="DejaVuSans-34" d="M 2419 4116 
L 825 1625 
L 2419 1625 
L 2419 4116 
z
M 2253 4666 
L 3047 4666 
L 3047 1625 
L 3713 1625 
L 3713 1100 
L 3047 1100 
L 3047 0 
L 2419 0 
L 2419 1100 
L 313 1100 
L 313 1709 
L 2253 4666 
z
" transform="scale(0.015625)"/>
       </defs>
       <use xlink:href="#DejaVuSans-34"/>
       <use xlink:href="#DejaVuSans-30" transform="translate(63.623047 0)"/>
       <use xlink:href="#DejaVuSans-30" transform="translate(127.246094 0)"/>
       <use xlink:href="#DejaVuSans-30" transform="translate(190.869141 0)"/>
      </g>
     </g>
    </g>
    <g id="xtick_6">
     <g id="line2d_11">
      <path d="M 367.340753 307.584 
L 367.340753 41.472 
" clip-path="url(#pd17522ebb4)" style="fill: none; stroke: #b0b0b0; stroke-width: 0.8; stroke-linecap: square"/>
     </g>
     <g id="line2d_12">
      <g>
       <use xlink:href="#m3f09ea36d5" x="367.340753" y="307.584" style="stroke: #000000; stroke-width: 0.8"/>
      </g>
     </g>
     <g id="text_6">
      <!-- 5000 -->
      <g transform="translate(354.615753 322.182437) scale(0.1 -0.1)">
       <defs>
        <path id="DejaVuSans-35" d="M 691 4666 
L 3169 4666 
L 3169 4134 
L 1269 4134 
L 1269 2991 
Q 1406 3038 1543 3061 
Q 1681 3084 1819 3084 
Q 2600 3084 3056 2656 
Q 3513 2228 3513 1497 
Q 3513 744 3044 326 
Q 2575 -91 1722 -91 
Q 1428 -91 1123 -41 
Q 819 9 494 109 
L 494 744 
Q 775 591 1075 516 
Q 1375 441 1709 441 
Q 2250 441 2565 725 
Q 2881 1009 2881 1497 
Q 2881 1984 2565 2268 
Q 2250 2553 1709 2553 
Q 1456 2553 1204 2497 
Q 953 2441 691 2322 
L 691 4666 
z
" transform="scale(0.015625)"/>
       </defs>
       <use xlink:href="#DejaVuSans-35"/>
       <use xlink:href="#DejaVuSans-30" transform="translate(63.623047 0)"/>
       <use xlink:href="#DejaVuSans-30" transform="translate(127.246094 0)"/>
       <use xlink:href="#DejaVuSans-30" transform="translate(190.869141 0)"/>
      </g>
     </g>
    </g>
    <g id="text_7">
     <!-- Frecuencia $(Hz)$ -->
     <g transform="translate(196.91 335.860562) scale(0.1 -0.1)">
      <defs>
       <path id="DejaVuSans-46" d="M 628 4666 
L 3309 4666 
L 3309 4134 
L 1259 4134 
L 1259 2759 
L 3109 2759 
L 3109 2228 
L 1259 2228 
L 1259 0 
L 628 0 
L 628 4666 
z
" transform="scale(0.015625)"/>
       <path id="DejaVuSans-72" d="M 2631 2963 
Q 2534 3019 2420 3045 
Q 2306 3072 2169 3072 
Q 1681 3072 1420 2755 
Q 1159 2438 1159 1844 
L 1159 0 
L 581 0 
L 581 3500 
L 1159 3500 
L 1159 2956 
Q 1341 3275 1631 3429 
Q 1922 3584 2338 3584 
Q 2397 3584 2469 3576 
Q 2541 3569 2628 3553 
L 2631 2963 
z
" transform="scale(0.015625)"/>
       <path id="DejaVuSans-65" d="M 3597 1894 
L 3597 1613 
L 953 1613 
Q 991 1019 1311 708 
Q 1631 397 2203 397 
Q 2534 397 2845 478 
Q 3156 559 3463 722 
L 3463 178 
Q 3153 47 2828 -22 
Q 2503 -91 2169 -91 
Q 1331 -91 842 396 
Q 353 884 353 1716 
Q 353 2575 817 3079 
Q 1281 3584 2069 3584 
Q 2775 3584 3186 3129 
Q 3597 2675 3597 1894 
z
M 3022 2063 
Q 3016 2534 2758 2815 
Q 2500 3097 2075 3097 
Q 1594 3097 1305 2825 
Q 1016 2553 972 2059 
L 3022 2063 
z
" transform="scale(0.015625)"/>
       <path id="DejaVuSans-63" d="M 3122 3366 
L 3122 2828 
Q 2878 2963 2633 3030 
Q 2388 3097 2138 3097 
Q 1578 3097 1268 2742 
Q 959 2388 959 1747 
Q 959 1106 1268 751 
Q 1578 397 2138 397 
Q 2388 397 2633 464 
Q 2878 531 3122 666 
L 3122 134 
Q 2881 22 2623 -34 
Q 2366 -91 2075 -91 
Q 1284 -91 818 406 
Q 353 903 353 1747 
Q 353 2603 823 3093 
Q 1294 3584 2113 3584 
Q 2378 3584 2631 3529 
Q 2884 3475 3122 3366 
z
" transform="scale(0.015625)"/>
       <path id="DejaVuSans-75" d="M 544 1381 
L 544 3500 
L 1119 3500 
L 1119 1403 
Q 1119 906 1312 657 
Q 1506 409 1894 409 
Q 2359 409 2629 706 
Q 2900 1003 2900 1516 
L 2900 3500 
L 3475 3500 
L 3475 0 
L 2900 0 
L 2900 538 
Q 2691 219 2414 64 
Q 2138 -91 1772 -91 
Q 1169 -91 856 284 
Q 544 659 544 1381 
z
M 1991 3584 
L 1991 3584 
z
" transform="scale(0.015625)"/>
       <path id="DejaVuSans-6e" d="M 3513 2113 
L 3513 0 
L 2938 0 
L 2938 2094 
Q 2938 2591 2744 2837 
Q 2550 3084 2163 3084 
Q 1697 3084 1428 2787 
Q 1159 2491 1159 1978 
L 1159 0 
L 581 0 
L 581 3500 
L 1159 3500 
L 1159 2956 
Q 1366 3272 1645 3428 
Q 1925 3584 2291 3584 
Q 2894 3584 3203 3211 
Q 3513 2838 3513 2113 
z
" transform="scale(0.015625)"/>
       <path id="DejaVuSans-69" d="M 603 3500 
L 1178 3500 
L 1178 0 
L 603 0 
L 603 3500 
z
M 603 4863 
L 1178 4863 
L 1178 4134 
L 603 4134 
L 603 4863 
z
" transform="scale(0.015625)"/>
       <path id="DejaVuSans-61" d="M 2194 1759 
Q 1497 1759 1228 1600 
Q 959 1441 959 1056 
Q 959 750 1161 570 
Q 1363 391 1709 391 
Q 2188 391 2477 730 
Q 2766 1069 2766 1631 
L 2766 1759 
L 2194 1759 
z
M 3341 1997 
L 3341 0 
L 2766 0 
L 2766 531 
Q 2569 213 2275 61 
Q 1981 -91 1556 -91 
Q 1019 -91 701 211 
Q 384 513 384 1019 
Q 384 1609 779 1909 
Q 1175 2209 1959 2209 
L 2766 2209 
L 2766 2266 
Q 2766 2663 2505 2880 
Q 2244 3097 1772 3097 
Q 1472 3097 1187 3025 
Q 903 2953 641 2809 
L 641 3341 
Q 956 3463 1253 3523 
Q 1550 3584 1831 3584 
Q 2591 3584 2966 3190 
Q 3341 2797 3341 1997 
z
" transform="scale(0.015625)"/>
       <path id="DejaVuSans-20" transform="scale(0.015625)"/>
       <path id="DejaVuSans-28" d="M 1984 4856 
Q 1566 4138 1362 3434 
Q 1159 2731 1159 2009 
Q 1159 1288 1364 580 
Q 1569 -128 1984 -844 
L 1484 -844 
Q 1016 -109 783 600 
Q 550 1309 550 2009 
Q 550 2706 781 3412 
Q 1013 4119 1484 4856 
L 1984 4856 
z
" transform="scale(0.015625)"/>
       <path id="DejaVuSans-Oblique-48" d="M 1081 4666 
L 1716 4666 
L 1344 2753 
L 3634 2753 
L 4006 4666 
L 4641 4666 
L 3731 0 
L 3097 0 
L 3531 2222 
L 1241 2222 
L 806 0 
L 172 0 
L 1081 4666 
z
" transform="scale(0.015625)"/>
       <path id="DejaVuSans-Oblique-7a" d="M 744 3500 
L 3475 3500 
L 3372 2975 
L 738 459 
L 2913 459 
L 2822 0 
L -19 0 
L 84 525 
L 2719 3041 
L 653 3041 
L 744 3500 
z
" transform="scale(0.015625)"/>
       <path id="DejaVuSans-29" d="M 513 4856 
L 1013 4856 
Q 1481 4119 1714 3412 
Q 1947 2706 1947 2009 
Q 1947 1309 1714 600 
Q 1481 -109 1013 -844 
L 513 -844 
Q 928 -128 1133 580 
Q 1338 1288 1338 2009 
Q 1338 2731 1133 3434 
Q 928 4138 513 4856 
z
" transform="scale(0.015625)"/>
      </defs>
      <use xlink:href="#DejaVuSans-46" transform="translate(0 0.015625)"/>
      <use xlink:href="#DejaVuSans-72" transform="translate(57.519531 0.015625)"/>
      <use xlink:href="#DejaVuSans-65" transform="translate(98.632812 0.015625)"/>
      <use xlink:href="#DejaVuSans-63" transform="translate(160.15625 0.015625)"/>
      <use xlink:href="#DejaVuSans-75" transform="translate(215.136719 0.015625)"/>
      <use xlink:href="#DejaVuSans-65" transform="translate(278.515625 0.015625)"/>
      <use xlink:href="#DejaVuSans-6e" transform="translate(340.039062 0.015625)"/>
      <use xlink:href="#DejaVuSans-63" transform="translate(403.417969 0.015625)"/>
      <use xlink:href="#DejaVuSans-69" transform="translate(458.398438 0.015625)"/>
      <use xlink:href="#DejaVuSans-61" transform="translate(486.181641 0.015625)"/>
      <use xlink:href="#DejaVuSans-20" transform="translate(547.460938 0.015625)"/>
      <use xlink:href="#DejaVuSans-28" transform="translate(579.248047 0.015625)"/>
      <use xlink:href="#DejaVuSans-Oblique-48" transform="translate(618.261719 0.015625)"/>
      <use xlink:href="#DejaVuSans-Oblique-7a" transform="translate(693.457031 0.015625)"/>
      <use xlink:href="#DejaVuSans-29" transform="translate(745.947266 0.015625)"/>
     </g>
    </g>
   </g>
   <g id="matplotlib.axis_2">
    <g id="ytick_1">
     <g id="line2d_13">
      <path d="M 57.6 291.826308 
L 414.72 291.826308 
" clip-path="url(#pd17522ebb4)" style="fill: none; stroke: #b0b0b0; stroke-width: 0.8; stroke-linecap: square"/>
     </g>
     <g id="line2d_14">
      <defs>
       <path id="mf68455335b" d="M 0 0 
L -3.5 0 
" style="stroke: #000000; stroke-width: 0.8"/>
      </defs>
      <g>
       <use xlink:href="#mf68455335b" x="57.6" y="291.826308" style="stroke: #000000; stroke-width: 0.8"/>
      </g>
     </g>
     <g id="text_8">
      <!-- 0.0 -->
      <g transform="translate(34.696875 295.625527) scale(0.1 -0.1)">
       <defs>
        <path id="DejaVuSans-2e" d="M 684 794 
L 1344 794 
L 1344 0 
L 684 0 
L 684 794 
z
" transform="scale(0.015625)"/>
       </defs>
       <use xlink:href="#DejaVuSans-30"/>
       <use xlink:href="#DejaVuSans-2e" transform="translate(63.623047 0)"/>
       <use xlink:href="#DejaVuSans-30" transform="translate(95.410156 0)"/>
      </g>
     </g>
    </g>
    <g id="ytick_2">
     <g id="line2d_15">
      <path d="M 57.6 260.442393 
L 414.72 260.442393 
" clip-path="url(#pd17522ebb4)" style="fill: none; stroke: #b0b0b0; stroke-width: 0.8; stroke-linecap: square"/>
     </g>
     <g id="line2d_16">
      <g>
       <use xlink:href="#mf68455335b" x="57.6" y="260.442393" style="stroke: #000000; stroke-width: 0.8"/>
      </g>
     </g>
     <g id="text_9">
      <!-- 0.5 -->
      <g transform="translate(34.696875 264.241612) scale(0.1 -0.1)">
       <use xlink:href="#DejaVuSans-30"/>
       <use xlink:href="#DejaVuSans-2e" transform="translate(63.623047 0)"/>
       <use xlink:href="#DejaVuSans-35" transform="translate(95.410156 0)"/>
      </g>
     </g>
    </g>
    <g id="ytick_3">
     <g id="line2d_17">
      <path d="M 57.6 229.058478 
L 414.72 229.058478 
" clip-path="url(#pd17522ebb4)" style="fill: none; stroke: #b0b0b0; stroke-width: 0.8; stroke-linecap: square"/>
     </g>
     <g id="line2d_18">
      <g>
       <use xlink:href="#mf68455335b" x="57.6" y="229.058478" style="stroke: #000000; stroke-width: 0.8"/>
      </g>
     </g>
     <g id="text_10">
      <!-- 1.0 -->
      <g transform="translate(34.696875 232.857697) scale(0.1 -0.1)">
       <use xlink:href="#DejaVuSans-31"/>
       <use xlink:href="#DejaVuSans-2e" transform="translate(63.623047 0)"/>
       <use xlink:href="#DejaVuSans-30" transform="translate(95.410156 0)"/>
      </g>
     </g>
    </g>
    <g id="ytick_4">
     <g id="line2d_19">
      <path d="M 57.6 197.674563 
L 414.72 197.674563 
" clip-path="url(#pd17522ebb4)" style="fill: none; stroke: #b0b0b0; stroke-width: 0.8; stroke-linecap: square"/>
     </g>
     <g id="line2d_20">
      <g>
       <use xlink:href="#mf68455335b" x="57.6" y="197.674563" style="stroke: #000000; stroke-width: 0.8"/>
      </g>
     </g>
     <g id="text_11">
      <!-- 1.5 -->
      <g transform="translate(34.696875 201.473782) scale(0.1 -0.1)">
       <use xlink:href="#DejaVuSans-31"/>
       <use xlink:href="#DejaVuSans-2e" transform="translate(63.623047 0)"/>
       <use xlink:href="#DejaVuSans-35" transform="translate(95.410156 0)"/>
      </g>
     </g>
    </g>
    <g id="ytick_5">
     <g id="line2d_21">
      <path d="M 57.6 166.290648 
L 414.72 166.290648 
" clip-path="url(#pd17522ebb4)" style="fill: none; stroke: #b0b0b0; stroke-width: 0.8; stroke-linecap: square"/>
     </g>
     <g id="line2d_22">
      <g>
       <use xlink:href="#mf68455335b" x="57.6" y="166.290648" style="stroke: #000000; stroke-width: 0.8"/>
      </g>
     </g>
     <g id="text_12">
      <!-- 2.0 -->
      <g transform="translate(34.696875 170.089867) scale(0.1 -0.1)">
       <use xlink:href="#DejaVuSans-32"/>
       <use xlink:href="#DejaVuSans-2e" transform="translate(63.623047 0)"/>
       <use xlink:href="#DejaVuSans-30" transform="translate(95.410156 0)"/>
      </g>
     </g>
    </g>
    <g id="ytick_6">
     <g id="line2d_23">
      <path d="M 57.6 134.906734 
L 414.72 134.906734 
" clip-path="url(#pd17522ebb4)" style="fill: none; stroke: #b0b0b0; stroke-width: 0.8; stroke-linecap: square"/>
     </g>
     <g id="line2d_24">
      <g>
       <use xlink:href="#mf68455335b" x="57.6" y="134.906734" style="stroke: #000000; stroke-width: 0.8"/>
      </g>
     </g>
     <g id="text_13">
      <!-- 2.5 -->
      <g transform="translate(34.696875 138.705952) scale(0.1 -0.1)">
       <use xlink:href="#DejaVuSans-32"/>
       <use xlink:href="#DejaVuSans-2e" transform="translate(63.623047 0)"/>
       <use xlink:href="#DejaVuSans-35" transform="translate(95.410156 0)"/>
      </g>
     </g>
    </g>
    <g id="ytick_7">
     <g id="line2d_25">
      <path d="M 57.6 103.522819 
L 414.72 103.522819 
" clip-path="url(#pd17522ebb4)" style="fill: none; stroke: #b0b0b0; stroke-width: 0.8; stroke-linecap: square"/>
     </g>
     <g id="line2d_26">
      <g>
       <use xlink:href="#mf68455335b" x="57.6" y="103.522819" style="stroke: #000000; stroke-width: 0.8"/>
      </g>
     </g>
     <g id="text_14">
      <!-- 3.0 -->
      <g transform="translate(34.696875 107.322037) scale(0.1 -0.1)">
       <use xlink:href="#DejaVuSans-33"/>
       <use xlink:href="#DejaVuSans-2e" transform="translate(63.623047 0)"/>
       <use xlink:href="#DejaVuSans-30" transform="translate(95.410156 0)"/>
      </g>
     </g>
    </g>
    <g id="ytick_8">
     <g id="line2d_27">
      <path d="M 57.6 72.138904 
L 414.72 72.138904 
" clip-path="url(#pd17522ebb4)" style="fill: none; stroke: #b0b0b0; stroke-width: 0.8; stroke-linecap: square"/>
     </g>
     <g id="line2d_28">
      <g>
       <use xlink:href="#mf68455335b" x="57.6" y="72.138904" style="stroke: #000000; stroke-width: 0.8"/>
      </g>
     </g>
     <g id="text_15">
      <!-- 3.5 -->
      <g transform="translate(34.696875 75.938123) scale(0.1 -0.1)">
       <use xlink:href="#DejaVuSans-33"/>
       <use xlink:href="#DejaVuSans-2e" transform="translate(63.623047 0)"/>
       <use xlink:href="#DejaVuSans-35" transform="translate(95.410156 0)"/>
      </g>
     </g>
    </g>
    <g id="text_16">
     <!-- $V_{mR}/V_{mC}$ -->
     <g transform="translate(28.617187 195.028) rotate(-90) scale(0.1 -0.1)">
      <defs>
       <path id="DejaVuSans-Oblique-56" d="M 1319 0 
L 500 4666 
L 1119 4666 
L 1797 653 
L 4063 4666 
L 4750 4666 
L 2053 0 
L 1319 0 
z
" transform="scale(0.015625)"/>
       <path id="DejaVuSans-Oblique-6d" d="M 5747 2113 
L 5338 0 
L 4763 0 
L 5166 2094 
Q 5191 2228 5203 2325 
Q 5216 2422 5216 2491 
Q 5216 2772 5059 2928 
Q 4903 3084 4622 3084 
Q 4203 3084 3875 2770 
Q 3547 2456 3450 1953 
L 3066 0 
L 2491 0 
L 2900 2094 
Q 2925 2209 2937 2307 
Q 2950 2406 2950 2484 
Q 2950 2769 2794 2926 
Q 2638 3084 2363 3084 
Q 1938 3084 1609 2770 
Q 1281 2456 1184 1953 
L 800 0 
L 225 0 
L 909 3500 
L 1484 3500 
L 1375 2956 
Q 1609 3263 1923 3423 
Q 2238 3584 2597 3584 
Q 2978 3584 3223 3384 
Q 3469 3184 3519 2828 
Q 3781 3197 4126 3390 
Q 4472 3584 4856 3584 
Q 5306 3584 5551 3325 
Q 5797 3066 5797 2591 
Q 5797 2488 5784 2364 
Q 5772 2241 5747 2113 
z
" transform="scale(0.015625)"/>
       <path id="DejaVuSans-Oblique-52" d="M 1613 4147 
L 1294 2491 
L 2106 2491 
Q 2584 2491 2879 2755 
Q 3175 3019 3175 3444 
Q 3175 3784 2976 3965 
Q 2778 4147 2406 4147 
L 1613 4147 
z
M 2772 2241 
Q 2972 2194 3105 2009 
Q 3238 1825 3413 1275 
L 3809 0 
L 3144 0 
L 2778 1197 
Q 2638 1659 2453 1815 
Q 2269 1972 1888 1972 
L 1191 1972 
L 806 0 
L 172 0 
L 1081 4666 
L 2503 4666 
Q 3150 4666 3495 4373 
Q 3841 4081 3841 3531 
Q 3841 3044 3547 2687 
Q 3253 2331 2772 2241 
z
" transform="scale(0.015625)"/>
       <path id="DejaVuSans-2f" d="M 1625 4666 
L 2156 4666 
L 531 -594 
L 0 -594 
L 1625 4666 
z
" transform="scale(0.015625)"/>
       <path id="DejaVuSans-Oblique-43" d="M 4447 4306 
L 4319 3641 
Q 4019 3944 3683 4091 
Q 3347 4238 2956 4238 
Q 2422 4238 2017 3981 
Q 1613 3725 1319 3200 
Q 1131 2863 1032 2486 
Q 934 2109 934 1728 
Q 934 1091 1264 756 
Q 1594 422 2222 422 
Q 2656 422 3056 561 
Q 3456 700 3834 978 
L 3688 231 
Q 3316 72 2936 -9 
Q 2556 -91 2175 -91 
Q 1278 -91 773 396 
Q 269 884 269 1753 
Q 269 2309 461 2846 
Q 653 3384 1013 3828 
Q 1394 4300 1883 4525 
Q 2372 4750 3022 4750 
Q 3422 4750 3780 4639 
Q 4138 4528 4447 4306 
z
" transform="scale(0.015625)"/>
      </defs>
      <use xlink:href="#DejaVuSans-Oblique-56" transform="translate(0 0.09375)"/>
      <use xlink:href="#DejaVuSans-Oblique-6d" transform="translate(68.408203 -16.3125) scale(0.7)"/>
      <use xlink:href="#DejaVuSans-Oblique-52" transform="translate(136.59668 -16.3125) scale(0.7)"/>
      <use xlink:href="#DejaVuSans-2f" transform="translate(187.96875 0.09375)"/>
      <use xlink:href="#DejaVuSans-Oblique-56" transform="translate(221.660156 0.09375)"/>
      <use xlink:href="#DejaVuSans-Oblique-6d" transform="translate(290.068359 -16.3125) scale(0.7)"/>
      <use xlink:href="#DejaVuSans-Oblique-43" transform="translate(358.256836 -16.3125) scale(0.7)"/>
     </g>
    </g>
   </g>
   <g id="line2d_29">
    <defs>
     <path id="mad7507d060" d="M 0 3 
C 0.795609 3 1.55874 2.683901 2.12132 2.12132 
C 2.683901 1.55874 3 0.795609 3 0 
C 3 -0.795609 2.683901 -1.55874 2.12132 -2.12132 
C 1.55874 -2.683901 0.795609 -3 0 -3 
C -0.795609 -3 -1.55874 -2.683901 -2.12132 -2.12132 
C -2.683901 -1.55874 -3 -0.795609 -3 0 
C -3 0.795609 -2.683901 1.55874 -2.12132 2.12132 
C -1.55874 2.683901 -0.795609 3 0 3 
z
" style="stroke: #0000ff"/>
    </defs>
    <g clip-path="url(#pd17522ebb4)">
     <use xlink:href="#mad7507d060" x="73.844707" y="287.118721" style="fill: #0000ff; stroke: #0000ff"/>
     <use xlink:href="#mad7507d060" x="79.834422" y="282.662205" style="fill: #0000ff; stroke: #0000ff"/>
     <use xlink:href="#mad7507d060" x="85.824137" y="278.004705" style="fill: #0000ff; stroke: #0000ff"/>
     <use xlink:href="#mad7507d060" x="91.813852" y="273.439772" style="fill: #0000ff; stroke: #0000ff"/>
     <use xlink:href="#mad7507d060" x="97.803568" y="268.701318" style="fill: #0000ff; stroke: #0000ff"/>
     <use xlink:href="#mad7507d060" x="103.793283" y="263.853688" style="fill: #0000ff; stroke: #0000ff"/>
     <use xlink:href="#mad7507d060" x="109.782998" y="259.744973" style="fill: #0000ff; stroke: #0000ff"/>
     <use xlink:href="#mad7507d060" x="115.772713" y="255.449497" style="fill: #0000ff; stroke: #0000ff"/>
     <use xlink:href="#mad7507d060" x="121.762429" y="250.728324" style="fill: #0000ff; stroke: #0000ff"/>
     <use xlink:href="#mad7507d060" x="127.752144" y="246.664089" style="fill: #0000ff; stroke: #0000ff"/>
     <use xlink:href="#mad7507d060" x="133.801756" y="241.77095" style="fill: #0000ff; stroke: #0000ff"/>
     <use xlink:href="#mad7507d060" x="139.671677" y="237.317403" style="fill: #0000ff; stroke: #0000ff"/>
     <use xlink:href="#mad7507d060" x="145.841084" y="233.299548" style="fill: #0000ff; stroke: #0000ff"/>
     <use xlink:href="#mad7507d060" x="163.750332" y="219.548201" style="fill: #0000ff; stroke: #0000ff"/>
     <use xlink:href="#mad7507d060" x="181.719478" y="207.089738" style="fill: #0000ff; stroke: #0000ff"/>
     <use xlink:href="#mad7507d060" x="199.56883" y="193.025094" style="fill: #0000ff; stroke: #0000ff"/>
     <use xlink:href="#mad7507d060" x="217.597872" y="179.10041" style="fill: #0000ff; stroke: #0000ff"/>
     <use xlink:href="#mad7507d060" x="277.674716" y="138.210303" style="fill: #0000ff; stroke: #0000ff"/>
     <use xlink:href="#mad7507d060" x="337.33228" y="99.599829" style="fill: #0000ff; stroke: #0000ff"/>
     <use xlink:href="#mad7507d060" x="397.888301" y="61.677599" style="fill: #0000ff; stroke: #0000ff"/>
    </g>
   </g>
   <g id="line2d_30">
    <path d="M 73.844707 287.502201 
L 77.117874 285.139229 
L 80.391042 282.776257 
L 83.66421 280.413285 
L 86.937377 278.050314 
L 90.210545 275.687342 
L 93.483712 273.32437 
L 96.75688 270.961399 
L 100.030048 268.598427 
L 103.303215 266.235455 
L 106.576383 263.872483 
L 109.849551 261.509512 
L 113.122718 259.14654 
L 116.395886 256.783568 
L 119.669053 254.420597 
L 122.942221 252.057625 
L 126.215389 249.694653 
L 129.488556 247.331681 
L 132.761724 244.96871 
L 136.034892 242.605738 
L 139.308059 240.242766 
L 142.581227 237.879794 
L 145.854394 235.516823 
L 149.127562 233.153851 
L 152.40073 230.790879 
L 155.673897 228.427908 
L 158.947065 226.064936 
L 162.220232 223.701964 
L 165.4934 221.338992 
L 168.766568 218.976021 
L 172.039735 216.613049 
L 175.312903 214.250077 
L 178.586071 211.887106 
L 181.859238 209.524134 
L 185.132406 207.161162 
L 188.405573 204.79819 
L 191.678741 202.435219 
L 194.951909 200.072247 
L 198.225076 197.709275 
L 201.498244 195.346303 
L 204.771412 192.983332 
L 208.044579 190.62036 
L 211.317747 188.257388 
L 214.590914 185.894417 
L 217.864082 183.531445 
L 221.13725 181.168473 
L 224.410417 178.805501 
L 227.683585 176.44253 
L 230.956753 174.079558 
L 234.22992 171.716586 
L 237.503088 169.353614 
L 240.776255 166.990643 
L 244.049423 164.627671 
L 247.322591 162.264699 
L 250.595758 159.901728 
L 253.868926 157.538756 
L 257.142093 155.175784 
L 260.415261 152.812812 
L 263.688429 150.449841 
L 266.961596 148.086869 
L 270.234764 145.723897 
L 273.507932 143.360926 
L 276.781099 140.997954 
L 280.054267 138.634982 
L 283.327434 136.27201 
L 286.600602 133.909039 
L 289.87377 131.546067 
L 293.146937 129.183095 
L 296.420105 126.820123 
L 299.693273 124.457152 
L 302.96644 122.09418 
L 306.239608 119.731208 
L 309.512775 117.368237 
L 312.785943 115.005265 
L 316.059111 112.642293 
L 319.332278 110.279321 
L 322.605446 107.91635 
L 325.878614 105.553378 
L 329.151781 103.190406 
L 332.424949 100.827434 
L 335.698116 98.464463 
L 338.971284 96.101491 
L 342.244452 93.738519 
L 345.517619 91.375548 
L 348.790787 89.012576 
L 352.063955 86.649604 
L 355.337122 84.286632 
L 358.61029 81.923661 
L 361.883457 79.560689 
L 365.156625 77.197717 
L 368.429793 74.834746 
L 371.70296 72.471774 
L 374.976128 70.108802 
L 378.249295 67.74583 
L 381.522463 65.382859 
L 384.795631 63.019887 
L 388.068798 60.656915 
L 391.341966 58.293943 
L 394.615134 55.930972 
L 397.888301 53.568 
" clip-path="url(#pd17522ebb4)" style="fill: none; stroke: #ff0000; stroke-width: 1.5; stroke-linecap: square"/>
   </g>
   <g id="LineCollection_1">
    <path d="M 73.832727 287.118721 
L 73.856686 287.118721 
" clip-path="url(#pd17522ebb4)" style="fill: none; stroke: #0000ff; stroke-width: 1.5"/>
    <path d="M 79.822443 282.662205 
L 79.846401 282.662205 
" clip-path="url(#pd17522ebb4)" style="fill: none; stroke: #0000ff; stroke-width: 1.5"/>
    <path d="M 85.806168 278.004705 
L 85.842106 278.004705 
" clip-path="url(#pd17522ebb4)" style="fill: none; stroke: #0000ff; stroke-width: 1.5"/>
    <path d="M 91.777914 273.439772 
L 91.849791 273.439772 
" clip-path="url(#pd17522ebb4)" style="fill: none; stroke: #0000ff; stroke-width: 1.5"/>
    <path d="M 97.797578 268.701318 
L 97.809557 268.701318 
" clip-path="url(#pd17522ebb4)" style="fill: none; stroke: #0000ff; stroke-width: 1.5"/>
    <path d="M 103.703437 263.853688 
L 103.883129 263.853688 
" clip-path="url(#pd17522ebb4)" style="fill: none; stroke: #0000ff; stroke-width: 1.5"/>
    <path d="M 109.663204 259.744973 
L 109.902792 259.744973 
" clip-path="url(#pd17522ebb4)" style="fill: none; stroke: #0000ff; stroke-width: 1.5"/>
    <path d="M 115.694847 255.449497 
L 115.85058 255.449497 
" clip-path="url(#pd17522ebb4)" style="fill: none; stroke: #0000ff; stroke-width: 1.5"/>
    <path d="M 121.714511 250.728324 
L 121.810346 250.728324 
" clip-path="url(#pd17522ebb4)" style="fill: none; stroke: #0000ff; stroke-width: 1.5"/>
    <path d="M 127.63235 246.664089 
L 127.871938 246.664089 
" clip-path="url(#pd17522ebb4)" style="fill: none; stroke: #0000ff; stroke-width: 1.5"/>
    <path d="M 133.681962 241.77095 
L 133.921551 241.77095 
" clip-path="url(#pd17522ebb4)" style="fill: none; stroke: #0000ff; stroke-width: 1.5"/>
    <path d="M 139.491986 237.317403 
L 139.851369 237.317403 
" clip-path="url(#pd17522ebb4)" style="fill: none; stroke: #0000ff; stroke-width: 1.5"/>
    <path d="M 145.661392 233.299548 
L 146.020775 233.299548 
" clip-path="url(#pd17522ebb4)" style="fill: none; stroke: #0000ff; stroke-width: 1.5"/>
    <path d="M 163.630538 219.548201 
L 163.870127 219.548201 
" clip-path="url(#pd17522ebb4)" style="fill: none; stroke: #0000ff; stroke-width: 1.5"/>
    <path d="M 181.599684 207.089738 
L 181.839272 207.089738 
" clip-path="url(#pd17522ebb4)" style="fill: none; stroke: #0000ff; stroke-width: 1.5"/>
    <path d="M 199.209447 193.025094 
L 199.928213 193.025094 
" clip-path="url(#pd17522ebb4)" style="fill: none; stroke: #0000ff; stroke-width: 1.5"/>
    <path d="M 217.23849 179.10041 
L 217.957255 179.10041 
" clip-path="url(#pd17522ebb4)" style="fill: none; stroke: #0000ff; stroke-width: 1.5"/>
    <path d="M 277.315333 138.210303 
L 278.034099 138.210303 
" clip-path="url(#pd17522ebb4)" style="fill: none; stroke: #0000ff; stroke-width: 1.5"/>
    <path d="M 336.733309 99.599829 
L 337.931252 99.599829 
" clip-path="url(#pd17522ebb4)" style="fill: none; stroke: #0000ff; stroke-width: 1.5"/>
    <path d="M 397.28933 61.677599 
L 398.487273 61.677599 
" clip-path="url(#pd17522ebb4)" style="fill: none; stroke: #0000ff; stroke-width: 1.5"/>
   </g>
   <g id="LineCollection_2">
    <path d="M 73.844707 295.488 
L 73.844707 278.749441 
" clip-path="url(#pd17522ebb4)" style="fill: none; stroke: #0000ff; stroke-width: 1.5"/>
    <path d="M 79.834422 286.963204 
L 79.834422 278.361206 
" clip-path="url(#pd17522ebb4)" style="fill: none; stroke: #0000ff; stroke-width: 1.5"/>
    <path d="M 85.824137 280.886754 
L 85.824137 275.122656 
" clip-path="url(#pd17522ebb4)" style="fill: none; stroke: #0000ff; stroke-width: 1.5"/>
    <path d="M 91.813852 275.607891 
L 91.813852 271.271653 
" clip-path="url(#pd17522ebb4)" style="fill: none; stroke: #0000ff; stroke-width: 1.5"/>
    <path d="M 97.803568 270.612524 
L 97.803568 266.790112 
" clip-path="url(#pd17522ebb4)" style="fill: none; stroke: #0000ff; stroke-width: 1.5"/>
    <path d="M 103.793283 265.529755 
L 103.793283 262.177621 
" clip-path="url(#pd17522ebb4)" style="fill: none; stroke: #0000ff; stroke-width: 1.5"/>
    <path d="M 109.782998 261.277391 
L 109.782998 258.212555 
" clip-path="url(#pd17522ebb4)" style="fill: none; stroke: #0000ff; stroke-width: 1.5"/>
    <path d="M 115.772713 256.871988 
L 115.772713 254.027007 
" clip-path="url(#pd17522ebb4)" style="fill: none; stroke: #0000ff; stroke-width: 1.5"/>
    <path d="M 121.762429 252.092426 
L 121.762429 249.364222 
" clip-path="url(#pd17522ebb4)" style="fill: none; stroke: #0000ff; stroke-width: 1.5"/>
    <path d="M 127.752144 247.974712 
L 127.752144 245.353466 
" clip-path="url(#pd17522ebb4)" style="fill: none; stroke: #0000ff; stroke-width: 1.5"/>
    <path d="M 133.801756 243.045281 
L 133.801756 240.496619 
" clip-path="url(#pd17522ebb4)" style="fill: none; stroke: #0000ff; stroke-width: 1.5"/>
    <path d="M 139.671677 238.576987 
L 139.671677 236.057819 
" clip-path="url(#pd17522ebb4)" style="fill: none; stroke: #0000ff; stroke-width: 1.5"/>
    <path d="M 145.841084 234.543325 
L 145.841084 232.05577 
" clip-path="url(#pd17522ebb4)" style="fill: none; stroke: #0000ff; stroke-width: 1.5"/>
    <path d="M 163.750332 220.807785 
L 163.750332 218.288617 
" clip-path="url(#pd17522ebb4)" style="fill: none; stroke: #0000ff; stroke-width: 1.5"/>
    <path d="M 181.719478 208.391612 
L 181.719478 205.787863 
" clip-path="url(#pd17522ebb4)" style="fill: none; stroke: #0000ff; stroke-width: 1.5"/>
    <path d="M 199.56883 194.402192 
L 199.56883 191.647996 
" clip-path="url(#pd17522ebb4)" style="fill: none; stroke: #0000ff; stroke-width: 1.5"/>
    <path d="M 217.597872 180.56658 
L 217.597872 177.634239 
" clip-path="url(#pd17522ebb4)" style="fill: none; stroke: #0000ff; stroke-width: 1.5"/>
    <path d="M 277.674716 139.994656 
L 277.674716 136.425951 
" clip-path="url(#pd17522ebb4)" style="fill: none; stroke: #0000ff; stroke-width: 1.5"/>
    <path d="M 337.33228 101.663245 
L 337.33228 97.536413 
" clip-path="url(#pd17522ebb4)" style="fill: none; stroke: #0000ff; stroke-width: 1.5"/>
    <path d="M 397.888301 64.08724 
L 397.888301 59.267958 
" clip-path="url(#pd17522ebb4)" style="fill: none; stroke: #0000ff; stroke-width: 1.5"/>
   </g>
   <g id="patch_3">
    <path d="M 57.6 307.584 
L 57.6 41.472 
" style="fill: none; stroke: #000000; stroke-width: 0.8; stroke-linejoin: miter; stroke-linecap: square"/>
   </g>
   <g id="patch_4">
    <path d="M 414.72 307.584 
L 414.72 41.472 
" style="fill: none; stroke: #000000; stroke-width: 0.8; stroke-linejoin: miter; stroke-linecap: square"/>
   </g>
   <g id="patch_5">
    <path d="M 57.6 307.584 
L 414.72 307.584 
" style="fill: none; stroke: #000000; stroke-width: 0.8; stroke-linejoin: miter; stroke-linecap: square"/>
   </g>
   <g id="patch_6">
    <path d="M 57.6 41.472 
L 414.72 41.472 
" style="fill: none; stroke: #000000; stroke-width: 0.8; stroke-linejoin: miter; stroke-linecap: square"/>
   </g>
   <g id="text_17">
    <!-- Regresión lineal $V_{mR}/V_{mC}$ para el circuito de corriente alterna -->
    <g transform="translate(52.86 35.472) scale(0.12 -0.12)">
     <defs>
      <path id="DejaVuSans-52" d="M 2841 2188 
Q 3044 2119 3236 1894 
Q 3428 1669 3622 1275 
L 4263 0 
L 3584 0 
L 2988 1197 
Q 2756 1666 2539 1819 
Q 2322 1972 1947 1972 
L 1259 1972 
L 1259 0 
L 628 0 
L 628 4666 
L 2053 4666 
Q 2853 4666 3247 4331 
Q 3641 3997 3641 3322 
Q 3641 2881 3436 2590 
Q 3231 2300 2841 2188 
z
M 1259 4147 
L 1259 2491 
L 2053 2491 
Q 2509 2491 2742 2702 
Q 2975 2913 2975 3322 
Q 2975 3731 2742 3939 
Q 2509 4147 2053 4147 
L 1259 4147 
z
" transform="scale(0.015625)"/>
      <path id="DejaVuSans-67" d="M 2906 1791 
Q 2906 2416 2648 2759 
Q 2391 3103 1925 3103 
Q 1463 3103 1205 2759 
Q 947 2416 947 1791 
Q 947 1169 1205 825 
Q 1463 481 1925 481 
Q 2391 481 2648 825 
Q 2906 1169 2906 1791 
z
M 3481 434 
Q 3481 -459 3084 -895 
Q 2688 -1331 1869 -1331 
Q 1566 -1331 1297 -1286 
Q 1028 -1241 775 -1147 
L 775 -588 
Q 1028 -725 1275 -790 
Q 1522 -856 1778 -856 
Q 2344 -856 2625 -561 
Q 2906 -266 2906 331 
L 2906 616 
Q 2728 306 2450 153 
Q 2172 0 1784 0 
Q 1141 0 747 490 
Q 353 981 353 1791 
Q 353 2603 747 3093 
Q 1141 3584 1784 3584 
Q 2172 3584 2450 3431 
Q 2728 3278 2906 2969 
L 2906 3500 
L 3481 3500 
L 3481 434 
z
" transform="scale(0.015625)"/>
      <path id="DejaVuSans-73" d="M 2834 3397 
L 2834 2853 
Q 2591 2978 2328 3040 
Q 2066 3103 1784 3103 
Q 1356 3103 1142 2972 
Q 928 2841 928 2578 
Q 928 2378 1081 2264 
Q 1234 2150 1697 2047 
L 1894 2003 
Q 2506 1872 2764 1633 
Q 3022 1394 3022 966 
Q 3022 478 2636 193 
Q 2250 -91 1575 -91 
Q 1294 -91 989 -36 
Q 684 19 347 128 
L 347 722 
Q 666 556 975 473 
Q 1284 391 1588 391 
Q 1994 391 2212 530 
Q 2431 669 2431 922 
Q 2431 1156 2273 1281 
Q 2116 1406 1581 1522 
L 1381 1569 
Q 847 1681 609 1914 
Q 372 2147 372 2553 
Q 372 3047 722 3315 
Q 1072 3584 1716 3584 
Q 2034 3584 2315 3537 
Q 2597 3491 2834 3397 
z
" transform="scale(0.015625)"/>
      <path id="DejaVuSans-f3" d="M 1959 3097 
Q 1497 3097 1228 2736 
Q 959 2375 959 1747 
Q 959 1119 1226 758 
Q 1494 397 1959 397 
Q 2419 397 2687 759 
Q 2956 1122 2956 1747 
Q 2956 2369 2687 2733 
Q 2419 3097 1959 3097 
z
M 1959 3584 
Q 2709 3584 3137 3096 
Q 3566 2609 3566 1747 
Q 3566 888 3137 398 
Q 2709 -91 1959 -91 
Q 1206 -91 779 398 
Q 353 888 353 1747 
Q 353 2609 779 3096 
Q 1206 3584 1959 3584 
z
M 2394 5119 
L 3016 5119 
L 1998 3944 
L 1519 3944 
L 2394 5119 
z
" transform="scale(0.015625)"/>
      <path id="DejaVuSans-6c" d="M 603 4863 
L 1178 4863 
L 1178 0 
L 603 0 
L 603 4863 
z
" transform="scale(0.015625)"/>
      <path id="DejaVuSans-70" d="M 1159 525 
L 1159 -1331 
L 581 -1331 
L 581 3500 
L 1159 3500 
L 1159 2969 
Q 1341 3281 1617 3432 
Q 1894 3584 2278 3584 
Q 2916 3584 3314 3078 
Q 3713 2572 3713 1747 
Q 3713 922 3314 415 
Q 2916 -91 2278 -91 
Q 1894 -91 1617 61 
Q 1341 213 1159 525 
z
M 3116 1747 
Q 3116 2381 2855 2742 
Q 2594 3103 2138 3103 
Q 1681 3103 1420 2742 
Q 1159 2381 1159 1747 
Q 1159 1113 1420 752 
Q 1681 391 2138 391 
Q 2594 391 2855 752 
Q 3116 1113 3116 1747 
z
" transform="scale(0.015625)"/>
      <path id="DejaVuSans-74" d="M 1172 4494 
L 1172 3500 
L 2356 3500 
L 2356 3053 
L 1172 3053 
L 1172 1153 
Q 1172 725 1289 603 
Q 1406 481 1766 481 
L 2356 481 
L 2356 0 
L 1766 0 
Q 1100 0 847 248 
Q 594 497 594 1153 
L 594 3053 
L 172 3053 
L 172 3500 
L 594 3500 
L 594 4494 
L 1172 4494 
z
" transform="scale(0.015625)"/>
      <path id="DejaVuSans-6f" d="M 1959 3097 
Q 1497 3097 1228 2736 
Q 959 2375 959 1747 
Q 959 1119 1226 758 
Q 1494 397 1959 397 
Q 2419 397 2687 759 
Q 2956 1122 2956 1747 
Q 2956 2369 2687 2733 
Q 2419 3097 1959 3097 
z
M 1959 3584 
Q 2709 3584 3137 3096 
Q 3566 2609 3566 1747 
Q 3566 888 3137 398 
Q 2709 -91 1959 -91 
Q 1206 -91 779 398 
Q 353 888 353 1747 
Q 353 2609 779 3096 
Q 1206 3584 1959 3584 
z
" transform="scale(0.015625)"/>
      <path id="DejaVuSans-64" d="M 2906 2969 
L 2906 4863 
L 3481 4863 
L 3481 0 
L 2906 0 
L 2906 525 
Q 2725 213 2448 61 
Q 2172 -91 1784 -91 
Q 1150 -91 751 415 
Q 353 922 353 1747 
Q 353 2572 751 3078 
Q 1150 3584 1784 3584 
Q 2172 3584 2448 3432 
Q 2725 3281 2906 2969 
z
M 947 1747 
Q 947 1113 1208 752 
Q 1469 391 1925 391 
Q 2381 391 2643 752 
Q 2906 1113 2906 1747 
Q 2906 2381 2643 2742 
Q 2381 3103 1925 3103 
Q 1469 3103 1208 2742 
Q 947 2381 947 1747 
z
" transform="scale(0.015625)"/>
     </defs>
     <use xlink:href="#DejaVuSans-52" transform="translate(0 0.015625)"/>
     <use xlink:href="#DejaVuSans-65" transform="translate(69.482422 0.015625)"/>
     <use xlink:href="#DejaVuSans-67" transform="translate(131.005859 0.015625)"/>
     <use xlink:href="#DejaVuSans-72" transform="translate(194.482422 0.015625)"/>
     <use xlink:href="#DejaVuSans-65" transform="translate(235.595703 0.015625)"/>
     <use xlink:href="#DejaVuSans-73" transform="translate(297.119141 0.015625)"/>
     <use xlink:href="#DejaVuSans-69" transform="translate(349.21875 0.015625)"/>
     <use xlink:href="#DejaVuSans-f3" transform="translate(377.001953 0.015625)"/>
     <use xlink:href="#DejaVuSans-6e" transform="translate(438.183594 0.015625)"/>
     <use xlink:href="#DejaVuSans-20" transform="translate(501.5625 0.015625)"/>
     <use xlink:href="#DejaVuSans-6c" transform="translate(533.349609 0.015625)"/>
     <use xlink:href="#DejaVuSans-69" transform="translate(561.132812 0.015625)"/>
     <use xlink:href="#DejaVuSans-6e" transform="translate(588.916016 0.015625)"/>
     <use xlink:href="#DejaVuSans-65" transform="translate(652.294922 0.015625)"/>
     <use xlink:href="#DejaVuSans-61" transform="translate(713.818359 0.015625)"/>
     <use xlink:href="#DejaVuSans-6c" transform="translate(775.097656 0.015625)"/>
     <use xlink:href="#DejaVuSans-20" transform="translate(802.880859 0.015625)"/>
     <use xlink:href="#DejaVuSans-Oblique-56" transform="translate(834.667969 0.015625)"/>
     <use xlink:href="#DejaVuSans-Oblique-6d" transform="translate(903.076172 -16.390625) scale(0.7)"/>
     <use xlink:href="#DejaVuSans-Oblique-52" transform="translate(971.264648 -16.390625) scale(0.7)"/>
     <use xlink:href="#DejaVuSans-2f" transform="translate(1022.636719 0.015625)"/>
     <use xlink:href="#DejaVuSans-Oblique-56" transform="translate(1056.328125 0.015625)"/>
     <use xlink:href="#DejaVuSans-Oblique-6d" transform="translate(1124.736328 -16.390625) scale(0.7)"/>
     <use xlink:href="#DejaVuSans-Oblique-43" transform="translate(1192.924805 -16.390625) scale(0.7)"/>
     <use xlink:href="#DejaVuSans-20" transform="translate(1244.536133 0.015625)"/>
     <use xlink:href="#DejaVuSans-70" transform="translate(1276.323242 0.015625)"/>
     <use xlink:href="#DejaVuSans-61" transform="translate(1339.799805 0.015625)"/>
     <use xlink:href="#DejaVuSans-72" transform="translate(1401.079102 0.015625)"/>
     <use xlink:href="#DejaVuSans-61" transform="translate(1442.192383 0.015625)"/>
     <use xlink:href="#DejaVuSans-20" transform="translate(1503.47168 0.015625)"/>
     <use xlink:href="#DejaVuSans-65" transform="translate(1535.258789 0.015625)"/>
     <use xlink:href="#DejaVuSans-6c" transform="translate(1596.782227 0.015625)"/>
     <use xlink:href="#DejaVuSans-20" transform="translate(1624.56543 0.015625)"/>
     <use xlink:href="#DejaVuSans-63" transform="translate(1656.352539 0.015625)"/>
     <use xlink:href="#DejaVuSans-69" transform="translate(1711.333008 0.015625)"/>
     <use xlink:href="#DejaVuSans-72" transform="translate(1739.116211 0.015625)"/>
     <use xlink:href="#DejaVuSans-63" transform="translate(1780.229492 0.015625)"/>
     <use xlink:href="#DejaVuSans-75" transform="translate(1835.209961 0.015625)"/>
     <use xlink:href="#DejaVuSans-69" transform="translate(1898.588867 0.015625)"/>
     <use xlink:href="#DejaVuSans-74" transform="translate(1926.37207 0.015625)"/>
     <use xlink:href="#DejaVuSans-6f" transform="translate(1965.581055 0.015625)"/>
     <use xlink:href="#DejaVuSans-20" transform="translate(2026.762695 0.015625)"/>
     <use xlink:href="#DejaVuSans-64" transform="translate(2058.549805 0.015625)"/>
     <use xlink:href="#DejaVuSans-65" transform="translate(2122.026367 0.015625)"/>
     <use xlink:href="#DejaVuSans-20" transform="translate(2183.549805 0.015625)"/>
     <use xlink:href="#DejaVuSans-63" transform="translate(2215.336914 0.015625)"/>
     <use xlink:href="#DejaVuSans-6f" transform="translate(2270.317383 0.015625)"/>
     <use xlink:href="#DejaVuSans-72" transform="translate(2331.499023 0.015625)"/>
     <use xlink:href="#DejaVuSans-72" transform="translate(2372.612305 0.015625)"/>
     <use xlink:href="#DejaVuSans-69" transform="translate(2413.725586 0.015625)"/>
     <use xlink:href="#DejaVuSans-65" transform="translate(2441.508789 0.015625)"/>
     <use xlink:href="#DejaVuSans-6e" transform="translate(2503.032227 0.015625)"/>
     <use xlink:href="#DejaVuSans-74" transform="translate(2566.411133 0.015625)"/>
     <use xlink:href="#DejaVuSans-65" transform="translate(2605.620117 0.015625)"/>
     <use xlink:href="#DejaVuSans-20" transform="translate(2667.143555 0.015625)"/>
     <use xlink:href="#DejaVuSans-61" transform="translate(2698.930664 0.015625)"/>
     <use xlink:href="#DejaVuSans-6c" transform="translate(2760.209961 0.015625)"/>
     <use xlink:href="#DejaVuSans-74" transform="translate(2787.993164 0.015625)"/>
     <use xlink:href="#DejaVuSans-65" transform="translate(2827.202148 0.015625)"/>
     <use xlink:href="#DejaVuSans-72" transform="translate(2888.725586 0.015625)"/>
     <use xlink:href="#DejaVuSans-6e" transform="translate(2929.838867 0.015625)"/>
     <use xlink:href="#DejaVuSans-61" transform="translate(2993.217773 0.015625)"/>
    </g>
   </g>
   <g id="legend_1">
    <g id="patch_7">
     <path d="M 64.6 78.82825 
L 170.954687 78.82825 
Q 172.954687 78.82825 172.954687 76.82825 
L 172.954687 48.472 
Q 172.954687 46.472 170.954687 46.472 
L 64.6 46.472 
Q 62.6 46.472 62.6 48.472 
L 62.6 76.82825 
Q 62.6 78.82825 64.6 78.82825 
z
" style="fill: #ffffff; opacity: 0.8; stroke: #cccccc; stroke-linejoin: miter"/>
    </g>
    <g id="line2d_31">
     <path d="M 66.6 54.570437 
L 76.6 54.570437 
L 86.6 54.570437 
" style="fill: none; stroke: #ff0000; stroke-width: 1.5; stroke-linecap: square"/>
    </g>
    <g id="text_18">
     <!-- Recta ajustada -->
     <g transform="translate(94.6 58.070437) scale(0.1 -0.1)">
      <defs>
       <path id="DejaVuSans-6a" d="M 603 3500 
L 1178 3500 
L 1178 -63 
Q 1178 -731 923 -1031 
Q 669 -1331 103 -1331 
L -116 -1331 
L -116 -844 
L 38 -844 
Q 366 -844 484 -692 
Q 603 -541 603 -63 
L 603 3500 
z
M 603 4863 
L 1178 4863 
L 1178 4134 
L 603 4134 
L 603 4863 
z
" transform="scale(0.015625)"/>
      </defs>
      <use xlink:href="#DejaVuSans-52"/>
      <use xlink:href="#DejaVuSans-65" transform="translate(64.982422 0)"/>
      <use xlink:href="#DejaVuSans-63" transform="translate(126.505859 0)"/>
      <use xlink:href="#DejaVuSans-74" transform="translate(181.486328 0)"/>
      <use xlink:href="#DejaVuSans-61" transform="translate(220.695312 0)"/>
      <use xlink:href="#DejaVuSans-20" transform="translate(281.974609 0)"/>
      <use xlink:href="#DejaVuSans-61" transform="translate(313.761719 0)"/>
      <use xlink:href="#DejaVuSans-6a" transform="translate(375.041016 0)"/>
      <use xlink:href="#DejaVuSans-75" transform="translate(402.824219 0)"/>
      <use xlink:href="#DejaVuSans-73" transform="translate(466.203125 0)"/>
      <use xlink:href="#DejaVuSans-74" transform="translate(518.302734 0)"/>
      <use xlink:href="#DejaVuSans-61" transform="translate(557.511719 0)"/>
      <use xlink:href="#DejaVuSans-64" transform="translate(618.791016 0)"/>
      <use xlink:href="#DejaVuSans-61" transform="translate(682.267578 0)"/>
     </g>
    </g>
    <g id="LineCollection_3">
     <path d="M 71.6 69.248562 
L 81.6 69.248562 
" style="fill: none; stroke: #0000ff; stroke-width: 1.5"/>
    </g>
    <g id="LineCollection_4">
     <path d="M 76.6 74.248562 
L 76.6 64.248562 
" style="fill: none; stroke: #0000ff; stroke-width: 1.5"/>
    </g>
    <g id="line2d_32"/>
    <g id="line2d_33">
     <g>
      <use xlink:href="#mad7507d060" x="76.6" y="69.248562" style="fill: #0000ff; stroke: #0000ff"/>
     </g>
    </g>
    <g id="text_19">
     <!-- Datos -->
     <g transform="translate(94.6 72.748562) scale(0.1 -0.1)">
      <defs>
       <path id="DejaVuSans-44" d="M 1259 4147 
L 1259 519 
L 2022 519 
Q 2988 519 3436 956 
Q 3884 1394 3884 2338 
Q 3884 3275 3436 3711 
Q 2988 4147 2022 4147 
L 1259 4147 
z
M 628 4666 
L 1925 4666 
Q 3281 4666 3915 4102 
Q 4550 3538 4550 2338 
Q 4550 1131 3912 565 
Q 3275 0 1925 0 
L 628 0 
L 628 4666 
z
" transform="scale(0.015625)"/>
      </defs>
      <use xlink:href="#DejaVuSans-44"/>
      <use xlink:href="#DejaVuSans-61" transform="translate(77.001953 0)"/>
      <use xlink:href="#DejaVuSans-74" transform="translate(138.28125 0)"/>
      <use xlink:href="#DejaVuSans-6f" transform="translate(177.490234 0)"/>
      <use xlink:href="#DejaVuSans-73" transform="translate(238.671875 0)"/>
     </g>
    </g>
   </g>
  </g>
 </g>
 <defs>
  <clipPath id="pd17522ebb4">
   <rect x="57.6" y="41.472" width="357.12" height="266.112"/>
  </clipPath>
 </defs>
</svg>
