<?xml version="1.0" encoding="utf-8" standalone="no"?>
<!DOCTYPE svg PUBLIC "-//W3C//DTD SVG 1.1//EN"
  "http://www.w3.org/Graphics/SVG/1.1/DTD/svg11.dtd">
<svg xmlns:xlink="http://www.w3.org/1999/xlink" width="460.8pt" height="345.6pt" viewBox="0 0 460.8 345.6" xmlns="http://www.w3.org/2000/svg" version="1.1">
 <metadata>
  <rdf:RDF xmlns:dc="http://purl.org/dc/elements/1.1/" xmlns:cc="http://creativecommons.org/ns#" xmlns:rdf="http://www.w3.org/1999/02/22-rdf-syntax-ns#">
   <cc:Work>
    <dc:type rdf:resource="http://purl.org/dc/dcmitype/StillImage"/>
    <dc:date>2026-03-05T21:54:48.667208</dc:date>
    <dc:format>image/svg+xml</dc:format>
    <dc:creator>
     <cc:Agent>
      <dc:title>Matplotlib v3.10.8, https://matplotlib.org/</dc:title>
     </cc:Agent>
    </dc:creator>
   </cc:Work>
  </rdf:RDF>
 </metadata>
 <defs>
  <style type="text/css">*{stroke-linejoin: round; stroke-linecap: butt}</style>
 </defs>
 <g id="figure_1">
  <g id="patch_1">
   <path d="M 0 345.6 
L 460.8 345.6 
L 460.8 0 
L 0 0 
z
" style="fill: #ffffff"/>
  </g>
  <g id="axes_1">
   <g id="patch_2">
    <path d="M 57.6 307.584 
L 414.72 307.584 
L 414.72 41.472 
L 57.6 41.472 
z
" style="fill: #ffffff"/>
   </g>
   <g id="matplotlib.axis_1">
    <g id="xtick_1">
     <g id="line2d_1">
      <path d="M 111.401921 307.584 
L 111.401921 41.472 
" clip-path="url(#pa4eee4e139)" style="fill: none; stroke: #b0b0b0; stroke-width: 0.8; stroke-linecap: square"/>
     </g>
     <g id="line2d_2">
      <defs>
       <path id="m8b6fff0ce1" d="M 0 0 
L 0 3.5 
" style="stroke: #000000; stroke-width: 0.8"/>
      </defs>
      <g>
       <use xlink:href="#m8b6fff0ce1" x="111.401921" y="307.584" style="stroke: #000000; stroke-width: 0.8"/>
      </g>
     </g>
     <g id="text_1">
      <!-- 1 -->
      <g transform="translate(108.220671 322.182437) scale(0.1 -0.1)">
       <defs>
        <path id="DejaVuSans-31" d="M 794 531 
L 1825 531 
L 1825 4091 
L 703 3866 
L 703 4441 
L 1819 4666 
L 2450 4666 
L 2450 531 
L 3481 531 
L 3481 0 
L 794 0 
L 794 531 
z
" transform="scale(0.015625)"/>
       </defs>
       <use xlink:href="#DejaVuSans-31"/>
      </g>
     </g>
    </g>
    <g id="xtick_2">
     <g id="line2d_3">
      <path d="M 182.287193 307.584 
L 182.287193 41.472 
" clip-path="url(#pa4eee4e139)" style="fill: none; stroke: #b0b0b0; stroke-width: 0.8; stroke-linecap: square"/>
     </g>
     <g id="line2d_4">
      <g>
       <use xlink:href="#m8b6fff0ce1" x="182.287193" y="307.584" style="stroke: #000000; stroke-width: 0.8"/>
      </g>
     </g>
     <g id="text_2">
      <!-- 2 -->
      <g transform="translate(179.105943 322.182437) scale(0.1 -0.1)">
       <defs>
        <path id="DejaVuSans-32" d="M 1228 531 
L 3431 531 
L 3431 0 
L 469 0 
L 469 531 
Q 828 903 1448 1529 
Q 2069 2156 2228 2338 
Q 2531 2678 2651 2914 
Q 2772 3150 2772 3378 
Q 2772 3750 2511 3984 
Q 2250 4219 1831 4219 
Q 1534 4219 1204 4116 
Q 875 4013 500 3803 
L 500 4441 
Q 881 4594 1212 4672 
Q 1544 4750 1819 4750 
Q 2544 4750 2975 4387 
Q 3406 4025 3406 3419 
Q 3406 3131 3298 2873 
Q 3191 2616 2906 2266 
Q 2828 2175 2409 1742 
Q 1991 1309 1228 531 
z
" transform="scale(0.015625)"/>
       </defs>
       <use xlink:href="#DejaVuSans-32"/>
      </g>
     </g>
    </g>
    <g id="xtick_3">
     <g id="line2d_5">
      <path d="M 253.172465 307.584 
L 253.172465 41.472 
" clip-path="url(#pa4eee4e139)" style="fill: none; stroke: #b0b0b0; stroke-width: 0.8; stroke-linecap: square"/>
     </g>
     <g id="line2d_6">
      <g>
       <use xlink:href="#m8b6fff0ce1" x="253.172465" y="307.584" style="stroke: #000000; stroke-width: 0.8"/>
      </g>
     </g>
     <g id="text_3">
      <!-- 3 -->
      <g transform="translate(249.991215 322.182437) scale(0.1 -0.1)">
       <defs>
        <path id="DejaVuSans-33" d="M 2597 2516 
Q 3050 2419 3304 2112 
Q 3559 1806 3559 1356 
Q 3559 666 3084 287 
Q 2609 -91 1734 -91 
Q 1441 -91 1130 -33 
Q 819 25 488 141 
L 488 750 
Q 750 597 1062 519 
Q 1375 441 1716 441 
Q 2309 441 2620 675 
Q 2931 909 2931 1356 
Q 2931 1769 2642 2001 
Q 2353 2234 1838 2234 
L 1294 2234 
L 1294 2753 
L 1863 2753 
Q 2328 2753 2575 2939 
Q 2822 3125 2822 3475 
Q 2822 3834 2567 4026 
Q 2313 4219 1838 4219 
Q 1578 4219 1281 4162 
Q 984 4106 628 3988 
L 628 4550 
Q 988 4650 1302 4700 
Q 1616 4750 1894 4750 
Q 2613 4750 3031 4423 
Q 3450 4097 3450 3541 
Q 3450 3153 3228 2886 
Q 3006 2619 2597 2516 
z
" transform="scale(0.015625)"/>
       </defs>
       <use xlink:href="#DejaVuSans-33"/>
      </g>
     </g>
    </g>
    <g id="xtick_4">
     <g id="line2d_7">
      <path d="M 324.057737 307.584 
L 324.057737 41.472 
" clip-path="url(#pa4eee4e139)" style="fill: none; stroke: #b0b0b0; stroke-width: 0.8; stroke-linecap: square"/>
     </g>
     <g id="line2d_8">
      <g>
       <use xlink:href="#m8b6fff0ce1" x="324.057737" y="307.584" style="stroke: #000000; stroke-width: 0.8"/>
      </g>
     </g>
     <g id="text_4">
      <!-- 4 -->
      <g transform="translate(320.876487 322.182437) scale(0.1 -0.1)">
       <defs>
        <path id="DejaVuSans-34" d="M 2419 4116 
L 825 1625 
L 2419 1625 
L 2419 4116 
z
M 2253 4666 
L 3047 4666 
L 3047 1625 
L 3713 1625 
L 3713 1100 
L 3047 1100 
L 3047 0 
L 2419 0 
L 2419 1100 
L 313 1100 
L 313 1709 
L 2253 4666 
z
" transform="scale(0.015625)"/>
       </defs>
       <use xlink:href="#DejaVuSans-34"/>
      </g>
     </g>
    </g>
    <g id="xtick_5">
     <g id="line2d_9">
      <path d="M 394.943009 307.584 
L 394.943009 41.472 
" clip-path="url(#pa4eee4e139)" style="fill: none; stroke: #b0b0b0; stroke-width: 0.8; stroke-linecap: square"/>
     </g>
     <g id="line2d_10">
      <g>
       <use xlink:href="#m8b6fff0ce1" x="394.943009" y="307.584" style="stroke: #000000; stroke-width: 0.8"/>
      </g>
     </g>
     <g id="text_5">
      <!-- 5 -->
      <g transform="translate(391.761759 322.182437) scale(0.1 -0.1)">
       <defs>
        <path id="DejaVuSans-35" d="M 691 4666 
L 3169 4666 
L 3169 4134 
L 1269 4134 
L 1269 2991 
Q 1406 3038 1543 3061 
Q 1681 3084 1819 3084 
Q 2600 3084 3056 2656 
Q 3513 2228 3513 1497 
Q 3513 744 3044 326 
Q 2575 -91 1722 -91 
Q 1428 -91 1123 -41 
Q 819 9 494 109 
L 494 744 
Q 775 591 1075 516 
Q 1375 441 1709 441 
Q 2250 441 2565 725 
Q 2881 1009 2881 1497 
Q 2881 1984 2565 2268 
Q 2250 2553 1709 2553 
Q 1456 2553 1204 2497 
Q 953 2441 691 2322 
L 691 4666 
z
" transform="scale(0.015625)"/>
       </defs>
       <use xlink:href="#DejaVuSans-35"/>
      </g>
     </g>
    </g>
    <g id="text_6">
     <!-- Intensidad $(A)$ -->
     <g transform="translate(200.96 335.860562) scale(0.1 -0.1)">
      <defs>
       <path id="DejaVuSans-49" d="M 628 4666 
L 1259 4666 
L 1259 0 
L 628 0 
L 628 4666 
z
" transform="scale(0.015625)"/>
       <path id="DejaVuSans-6e" d="M 3513 2113 
L 3513 0 
L 2938 0 
L 2938 2094 
Q 2938 2591 2744 2837 
Q 2550 3084 2163 3084 
Q 1697 3084 1428 2787 
Q 1159 2491 1159 1978 
L 1159 0 
L 581 0 
L 581 3500 
L 1159 3500 
L 1159 2956 
Q 1366 3272 1645 3428 
Q 1925 3584 2291 3584 
Q 2894 3584 3203 3211 
Q 3513 2838 3513 2113 
z
" transform="scale(0.015625)"/>
       <path id="DejaVuSans-74" d="M 1172 4494 
L 1172 3500 
L 2356 3500 
L 2356 3053 
L 1172 3053 
L 1172 1153 
Q 1172 725 1289 603 
Q 1406 481 1766 481 
L 2356 481 
L 2356 0 
L 1766 0 
Q 1100 0 847 248 
Q 594 497 594 1153 
L 594 3053 
L 172 3053 
L 172 3500 
L 594 3500 
L 594 4494 
L 1172 4494 
z
" transform="scale(0.015625)"/>
       <path id="DejaVuSans-65" d="M 3597 1894 
L 3597 1613 
L 953 1613 
Q 991 1019 1311 708 
Q 1631 397 2203 397 
Q 2534 397 2845 478 
Q 3156 559 3463 722 
L 3463 178 
Q 3153 47 2828 -22 
Q 2503 -91 2169 -91 
Q 1331 -91 842 396 
Q 353 884 353 1716 
Q 353 2575 817 3079 
Q 1281 3584 2069 3584 
Q 2775 3584 3186 3129 
Q 3597 2675 3597 1894 
z
M 3022 2063 
Q 3016 2534 2758 2815 
Q 2500 3097 2075 3097 
Q 1594 3097 1305 2825 
Q 1016 2553 972 2059 
L 3022 2063 
z
" transform="scale(0.015625)"/>
       <path id="DejaVuSans-73" d="M 2834 3397 
L 2834 2853 
Q 2591 2978 2328 3040 
Q 2066 3103 1784 3103 
Q 1356 3103 1142 2972 
Q 928 2841 928 2578 
Q 928 2378 1081 2264 
Q 1234 2150 1697 2047 
L 1894 2003 
Q 2506 1872 2764 1633 
Q 3022 1394 3022 966 
Q 3022 478 2636 193 
Q 2250 -91 1575 -91 
Q 1294 -91 989 -36 
Q 684 19 347 128 
L 347 722 
Q 666 556 975 473 
Q 1284 391 1588 391 
Q 1994 391 2212 530 
Q 2431 669 2431 922 
Q 2431 1156 2273 1281 
Q 2116 1406 1581 1522 
L 1381 1569 
Q 847 1681 609 1914 
Q 372 2147 372 2553 
Q 372 3047 722 3315 
Q 1072 3584 1716 3584 
Q 2034 3584 2315 3537 
Q 2597 3491 2834 3397 
z
" transform="scale(0.015625)"/>
       <path id="DejaVuSans-69" d="M 603 3500 
L 1178 3500 
L 1178 0 
L 603 0 
L 603 3500 
z
M 603 4863 
L 1178 4863 
L 1178 4134 
L 603 4134 
L 603 4863 
z
" transform="scale(0.015625)"/>
       <path id="DejaVuSans-64" d="M 2906 2969 
L 2906 4863 
L 3481 4863 
L 3481 0 
L 2906 0 
L 2906 525 
Q 2725 213 2448 61 
Q 2172 -91 1784 -91 
Q 1150 -91 751 415 
Q 353 922 353 1747 
Q 353 2572 751 3078 
Q 1150 3584 1784 3584 
Q 2172 3584 2448 3432 
Q 2725 3281 2906 2969 
z
M 947 1747 
Q 947 1113 1208 752 
Q 1469 391 1925 391 
Q 2381 391 2643 752 
Q 2906 1113 2906 1747 
Q 2906 2381 2643 2742 
Q 2381 3103 1925 3103 
Q 1469 3103 1208 2742 
Q 947 2381 947 1747 
z
" transform="scale(0.015625)"/>
       <path id="DejaVuSans-61" d="M 2194 1759 
Q 1497 1759 1228 1600 
Q 959 1441 959 1056 
Q 959 750 1161 570 
Q 1363 391 1709 391 
Q 2188 391 2477 730 
Q 2766 1069 2766 1631 
L 2766 1759 
L 2194 1759 
z
M 3341 1997 
L 3341 0 
L 2766 0 
L 2766 531 
Q 2569 213 2275 61 
Q 1981 -91 1556 -91 
Q 1019 -91 701 211 
Q 384 513 384 1019 
Q 384 1609 779 1909 
Q 1175 2209 1959 2209 
L 2766 2209 
L 2766 2266 
Q 2766 2663 2505 2880 
Q 2244 3097 1772 3097 
Q 1472 3097 1187 3025 
Q 903 2953 641 2809 
L 641 3341 
Q 956 3463 1253 3523 
Q 1550 3584 1831 3584 
Q 2591 3584 2966 3190 
Q 3341 2797 3341 1997 
z
" transform="scale(0.015625)"/>
       <path id="DejaVuSans-20" transform="scale(0.015625)"/>
       <path id="DejaVuSans-28" d="M 1984 4856 
Q 1566 4138 1362 3434 
Q 1159 2731 1159 2009 
Q 1159 1288 1364 580 
Q 1569 -128 1984 -844 
L 1484 -844 
Q 1016 -109 783 600 
Q 550 1309 550 2009 
Q 550 2706 781 3412 
Q 1013 4119 1484 4856 
L 1984 4856 
z
" transform="scale(0.015625)"/>
       <path id="DejaVuSans-Oblique-41" d="M 2356 4666 
L 3072 4666 
L 3938 0 
L 3278 0 
L 3084 1197 
L 984 1197 
L 325 0 
L -341 0 
L 2356 4666 
z
M 2584 4044 
L 1275 1722 
L 2988 1722 
L 2584 4044 
z
" transform="scale(0.015625)"/>
       <path id="DejaVuSans-29" d="M 513 4856 
L 1013 4856 
Q 1481 4119 1714 3412 
Q 1947 2706 1947 2009 
Q 1947 1309 1714 600 
Q 1481 -109 1013 -844 
L 513 -844 
Q 928 -128 1133 580 
Q 1338 1288 1338 2009 
Q 1338 2731 1133 3434 
Q 928 4138 513 4856 
z
" transform="scale(0.015625)"/>
      </defs>
      <use xlink:href="#DejaVuSans-49" transform="translate(0 0.015625)"/>
      <use xlink:href="#DejaVuSans-6e" transform="translate(29.492188 0.015625)"/>
      <use xlink:href="#DejaVuSans-74" transform="translate(92.871094 0.015625)"/>
      <use xlink:href="#DejaVuSans-65" transform="translate(132.080078 0.015625)"/>
      <use xlink:href="#DejaVuSans-6e" transform="translate(193.603516 0.015625)"/>
      <use xlink:href="#DejaVuSans-73" transform="translate(256.982422 0.015625)"/>
      <use xlink:href="#DejaVuSans-69" transform="translate(309.082031 0.015625)"/>
      <use xlink:href="#DejaVuSans-64" transform="translate(336.865234 0.015625)"/>
      <use xlink:href="#DejaVuSans-61" transform="translate(400.341797 0.015625)"/>
      <use xlink:href="#DejaVuSans-64" transform="translate(461.621094 0.015625)"/>
      <use xlink:href="#DejaVuSans-20" transform="translate(525.097656 0.015625)"/>
      <use xlink:href="#DejaVuSans-28" transform="translate(556.884766 0.015625)"/>
      <use xlink:href="#DejaVuSans-Oblique-41" transform="translate(595.898438 0.015625)"/>
      <use xlink:href="#DejaVuSans-29" transform="translate(664.306641 0.015625)"/>
     </g>
    </g>
    <g id="text_7">
     <!-- 1e−5 -->
     <g transform="translate(387.462188 334.860562) scale(0.1 -0.1)">
      <defs>
       <path id="DejaVuSans-2212" d="M 678 2272 
L 4684 2272 
L 4684 1741 
L 678 1741 
L 678 2272 
z
" transform="scale(0.015625)"/>
      </defs>
      <use xlink:href="#DejaVuSans-31"/>
      <use xlink:href="#DejaVuSans-65" transform="translate(63.623047 0)"/>
      <use xlink:href="#DejaVuSans-2212" transform="translate(125.146484 0)"/>
      <use xlink:href="#DejaVuSans-35" transform="translate(208.935547 0)"/>
     </g>
    </g>
   </g>
   <g id="matplotlib.axis_2">
    <g id="ytick_1">
     <g id="line2d_11">
      <path d="M 57.6 272.842403 
L 414.72 272.842403 
" clip-path="url(#pa4eee4e139)" style="fill: none; stroke: #b0b0b0; stroke-width: 0.8; stroke-linecap: square"/>
     </g>
     <g id="line2d_12">
      <defs>
       <path id="m9f3673815c" d="M 0 0 
L -3.5 0 
" style="stroke: #000000; stroke-width: 0.8"/>
      </defs>
      <g>
       <use xlink:href="#m9f3673815c" x="57.6" y="272.842403" style="stroke: #000000; stroke-width: 0.8"/>
      </g>
     </g>
     <g id="text_8">
      <!-- 2 -->
      <g transform="translate(44.2375 276.641622) scale(0.1 -0.1)">
       <use xlink:href="#DejaVuSans-32"/>
      </g>
     </g>
    </g>
    <g id="ytick_2">
     <g id="line2d_13">
      <path d="M 57.6 224.490826 
L 414.72 224.490826 
" clip-path="url(#pa4eee4e139)" style="fill: none; stroke: #b0b0b0; stroke-width: 0.8; stroke-linecap: square"/>
     </g>
     <g id="line2d_14">
      <g>
       <use xlink:href="#m9f3673815c" x="57.6" y="224.490826" style="stroke: #000000; stroke-width: 0.8"/>
      </g>
     </g>
     <g id="text_9">
      <!-- 4 -->
      <g transform="translate(44.2375 228.290044) scale(0.1 -0.1)">
       <use xlink:href="#DejaVuSans-34"/>
      </g>
     </g>
    </g>
    <g id="ytick_3">
     <g id="line2d_15">
      <path d="M 57.6 176.139248 
L 414.72 176.139248 
" clip-path="url(#pa4eee4e139)" style="fill: none; stroke: #b0b0b0; stroke-width: 0.8; stroke-linecap: square"/>
     </g>
     <g id="line2d_16">
      <g>
       <use xlink:href="#m9f3673815c" x="57.6" y="176.139248" style="stroke: #000000; stroke-width: 0.8"/>
      </g>
     </g>
     <g id="text_10">
      <!-- 6 -->
      <g transform="translate(44.2375 179.938467) scale(0.1 -0.1)">
       <defs>
        <path id="DejaVuSans-36" d="M 2113 2584 
Q 1688 2584 1439 2293 
Q 1191 2003 1191 1497 
Q 1191 994 1439 701 
Q 1688 409 2113 409 
Q 2538 409 2786 701 
Q 3034 994 3034 1497 
Q 3034 2003 2786 2293 
Q 2538 2584 2113 2584 
z
M 3366 4563 
L 3366 3988 
Q 3128 4100 2886 4159 
Q 2644 4219 2406 4219 
Q 1781 4219 1451 3797 
Q 1122 3375 1075 2522 
Q 1259 2794 1537 2939 
Q 1816 3084 2150 3084 
Q 2853 3084 3261 2657 
Q 3669 2231 3669 1497 
Q 3669 778 3244 343 
Q 2819 -91 2113 -91 
Q 1303 -91 875 529 
Q 447 1150 447 2328 
Q 447 3434 972 4092 
Q 1497 4750 2381 4750 
Q 2619 4750 2861 4703 
Q 3103 4656 3366 4563 
z
" transform="scale(0.015625)"/>
       </defs>
       <use xlink:href="#DejaVuSans-36"/>
      </g>
     </g>
    </g>
    <g id="ytick_4">
     <g id="line2d_17">
      <path d="M 57.6 127.787671 
L 414.72 127.787671 
" clip-path="url(#pa4eee4e139)" style="fill: none; stroke: #b0b0b0; stroke-width: 0.8; stroke-linecap: square"/>
     </g>
     <g id="line2d_18">
      <g>
       <use xlink:href="#m9f3673815c" x="57.6" y="127.787671" style="stroke: #000000; stroke-width: 0.8"/>
      </g>
     </g>
     <g id="text_11">
      <!-- 8 -->
      <g transform="translate(44.2375 131.58689) scale(0.1 -0.1)">
       <defs>
        <path id="DejaVuSans-38" d="M 2034 2216 
Q 1584 2216 1326 1975 
Q 1069 1734 1069 1313 
Q 1069 891 1326 650 
Q 1584 409 2034 409 
Q 2484 409 2743 651 
Q 3003 894 3003 1313 
Q 3003 1734 2745 1975 
Q 2488 2216 2034 2216 
z
M 1403 2484 
Q 997 2584 770 2862 
Q 544 3141 544 3541 
Q 544 4100 942 4425 
Q 1341 4750 2034 4750 
Q 2731 4750 3128 4425 
Q 3525 4100 3525 3541 
Q 3525 3141 3298 2862 
Q 3072 2584 2669 2484 
Q 3125 2378 3379 2068 
Q 3634 1759 3634 1313 
Q 3634 634 3220 271 
Q 2806 -91 2034 -91 
Q 1263 -91 848 271 
Q 434 634 434 1313 
Q 434 1759 690 2068 
Q 947 2378 1403 2484 
z
M 1172 3481 
Q 1172 3119 1398 2916 
Q 1625 2713 2034 2713 
Q 2441 2713 2670 2916 
Q 2900 3119 2900 3481 
Q 2900 3844 2670 4047 
Q 2441 4250 2034 4250 
Q 1625 4250 1398 4047 
Q 1172 3844 1172 3481 
z
" transform="scale(0.015625)"/>
       </defs>
       <use xlink:href="#DejaVuSans-38"/>
      </g>
     </g>
    </g>
    <g id="ytick_5">
     <g id="line2d_19">
      <path d="M 57.6 79.436094 
L 414.72 79.436094 
" clip-path="url(#pa4eee4e139)" style="fill: none; stroke: #b0b0b0; stroke-width: 0.8; stroke-linecap: square"/>
     </g>
     <g id="line2d_20">
      <g>
       <use xlink:href="#m9f3673815c" x="57.6" y="79.436094" style="stroke: #000000; stroke-width: 0.8"/>
      </g>
     </g>
     <g id="text_12">
      <!-- 10 -->
      <g transform="translate(37.875 83.235313) scale(0.1 -0.1)">
       <defs>
        <path id="DejaVuSans-30" d="M 2034 4250 
Q 1547 4250 1301 3770 
Q 1056 3291 1056 2328 
Q 1056 1369 1301 889 
Q 1547 409 2034 409 
Q 2525 409 2770 889 
Q 3016 1369 3016 2328 
Q 3016 3291 2770 3770 
Q 2525 4250 2034 4250 
z
M 2034 4750 
Q 2819 4750 3233 4129 
Q 3647 3509 3647 2328 
Q 3647 1150 3233 529 
Q 2819 -91 2034 -91 
Q 1250 -91 836 529 
Q 422 1150 422 2328 
Q 422 3509 836 4129 
Q 1250 4750 2034 4750 
z
" transform="scale(0.015625)"/>
       </defs>
       <use xlink:href="#DejaVuSans-31"/>
       <use xlink:href="#DejaVuSans-30" transform="translate(63.623047 0)"/>
      </g>
     </g>
    </g>
    <g id="text_13">
     <!-- Voltaje$(V)$ -->
     <g transform="translate(31.775 199.228) rotate(-90) scale(0.1 -0.1)">
      <defs>
       <path id="DejaVuSans-56" d="M 1831 0 
L 50 4666 
L 709 4666 
L 2188 738 
L 3669 4666 
L 4325 4666 
L 2547 0 
L 1831 0 
z
" transform="scale(0.015625)"/>
       <path id="DejaVuSans-6f" d="M 1959 3097 
Q 1497 3097 1228 2736 
Q 959 2375 959 1747 
Q 959 1119 1226 758 
Q 1494 397 1959 397 
Q 2419 397 2687 759 
Q 2956 1122 2956 1747 
Q 2956 2369 2687 2733 
Q 2419 3097 1959 3097 
z
M 1959 3584 
Q 2709 3584 3137 3096 
Q 3566 2609 3566 1747 
Q 3566 888 3137 398 
Q 2709 -91 1959 -91 
Q 1206 -91 779 398 
Q 353 888 353 1747 
Q 353 2609 779 3096 
Q 1206 3584 1959 3584 
z
" transform="scale(0.015625)"/>
       <path id="DejaVuSans-6c" d="M 603 4863 
L 1178 4863 
L 1178 0 
L 603 0 
L 603 4863 
z
" transform="scale(0.015625)"/>
       <path id="DejaVuSans-6a" d="M 603 3500 
L 1178 3500 
L 1178 -63 
Q 1178 -731 923 -1031 
Q 669 -1331 103 -1331 
L -116 -1331 
L -116 -844 
L 38 -844 
Q 366 -844 484 -692 
Q 603 -541 603 -63 
L 603 3500 
z
M 603 4863 
L 1178 4863 
L 1178 4134 
L 603 4134 
L 603 4863 
z
" transform="scale(0.015625)"/>
       <path id="DejaVuSans-Oblique-56" d="M 1319 0 
L 500 4666 
L 1119 4666 
L 1797 653 
L 4063 4666 
L 4750 4666 
L 2053 0 
L 1319 0 
z
" transform="scale(0.015625)"/>
      </defs>
      <use xlink:href="#DejaVuSans-56" transform="translate(0 0.015625)"/>
      <use xlink:href="#DejaVuSans-6f" transform="translate(68.408203 0.015625)"/>
      <use xlink:href="#DejaVuSans-6c" transform="translate(129.589844 0.015625)"/>
      <use xlink:href="#DejaVuSans-74" transform="translate(157.373047 0.015625)"/>
      <use xlink:href="#DejaVuSans-61" transform="translate(196.582031 0.015625)"/>
      <use xlink:href="#DejaVuSans-6a" transform="translate(257.861328 0.015625)"/>
      <use xlink:href="#DejaVuSans-65" transform="translate(285.644531 0.015625)"/>
      <use xlink:href="#DejaVuSans-28" transform="translate(347.167969 0.015625)"/>
      <use xlink:href="#DejaVuSans-Oblique-56" transform="translate(386.181641 0.015625)"/>
      <use xlink:href="#DejaVuSans-29" transform="translate(454.589844 0.015625)"/>
     </g>
    </g>
   </g>
   <g id="line2d_21">
    <defs>
     <path id="meacf8e75f2" d="M 0 3 
C 0.795609 3 1.55874 2.683901 2.12132 2.12132 
C 2.683901 1.55874 3 0.795609 3 0 
C 3 -0.795609 2.683901 -1.55874 2.12132 -2.12132 
C 1.55874 -2.683901 0.795609 -3 0 -3 
C -0.795609 -3 -1.55874 -2.683901 -2.12132 -2.12132 
C -2.683901 -1.55874 -3 -0.795609 -3 0 
C -3 0.795609 -2.683901 1.55874 -2.12132 2.12132 
C -1.55874 2.683901 -0.795609 3 0 3 
z
" style="stroke: #0000ff"/>
    </defs>
    <g clip-path="url(#pa4eee4e139)">
     <use xlink:href="#meacf8e75f2" x="74.54158" y="295.374238" style="fill: #0000ff; stroke: #0000ff"/>
     <use xlink:href="#meacf8e75f2" x="106.439952" y="271.633613" style="fill: #0000ff; stroke: #0000ff"/>
     <use xlink:href="#meacf8e75f2" x="139.047177" y="247.216067" style="fill: #0000ff; stroke: #0000ff"/>
     <use xlink:href="#meacf8e75f2" x="170.94555" y="223.523794" style="fill: #0000ff; stroke: #0000ff"/>
     <use xlink:href="#meacf8e75f2" x="203.552775" y="198.86449" style="fill: #0000ff; stroke: #0000ff"/>
     <use xlink:href="#meacf8e75f2" x="236.868853" y="174.446943" style="fill: #0000ff; stroke: #0000ff"/>
     <use xlink:href="#meacf8e75f2" x="268.767225" y="150.512912" style="fill: #0000ff; stroke: #0000ff"/>
     <use xlink:href="#meacf8e75f2" x="299.956745" y="126.82064" style="fill: #0000ff; stroke: #0000ff"/>
     <use xlink:href="#meacf8e75f2" x="332.56397" y="102.886609" style="fill: #0000ff; stroke: #0000ff"/>
     <use xlink:href="#meacf8e75f2" x="364.462342" y="78.469062" style="fill: #0000ff; stroke: #0000ff"/>
     <use xlink:href="#meacf8e75f2" x="397.77842" y="53.809758" style="fill: #0000ff; stroke: #0000ff"/>
    </g>
   </g>
   <g id="line2d_22">
    <path d="M 74.54158 295.488 
L 77.806599 293.047358 
L 81.071617 290.606717 
L 84.336636 288.166075 
L 87.601654 285.725433 
L 90.866673 283.284792 
L 94.131692 280.84415 
L 97.39671 278.403508 
L 100.661729 275.962867 
L 103.926747 273.522225 
L 107.191766 271.081584 
L 110.456784 268.640942 
L 113.721803 266.2003 
L 116.986822 263.759659 
L 120.25184 261.319017 
L 123.516859 258.878375 
L 126.781877 256.437734 
L 130.046896 253.997092 
L 133.311915 251.55645 
L 136.576933 249.115809 
L 139.841952 246.675167 
L 143.10697 244.234525 
L 146.371989 241.793884 
L 149.637007 239.353242 
L 152.902026 236.9126 
L 156.167045 234.471959 
L 159.432063 232.031317 
L 162.697082 229.590675 
L 165.9621 227.150034 
L 169.227119 224.709392 
L 172.492138 222.268751 
L 175.757156 219.828109 
L 179.022175 217.387467 
L 182.287193 214.946826 
L 185.552212 212.506184 
L 188.817231 210.065542 
L 192.082249 207.624901 
L 195.347268 205.184259 
L 198.612286 202.743617 
L 201.877305 200.302976 
L 205.142323 197.862334 
L 208.407342 195.421692 
L 211.672361 192.981051 
L 214.937379 190.540409 
L 218.202398 188.099767 
L 221.467416 185.659126 
L 224.732435 183.218484 
L 227.997454 180.777842 
L 231.262472 178.337201 
L 234.527491 175.896559 
L 237.792509 173.455918 
L 241.057528 171.015276 
L 244.322546 168.574634 
L 247.587565 166.133993 
L 250.852584 163.693351 
L 254.117602 161.252709 
L 257.382621 158.812068 
L 260.647639 156.371426 
L 263.912658 153.930784 
L 267.177677 151.490143 
L 270.442695 149.049501 
L 273.707714 146.608859 
L 276.972732 144.168218 
L 280.237751 141.727576 
L 283.502769 139.286934 
L 286.767788 136.846293 
L 290.032807 134.405651 
L 293.297825 131.965009 
L 296.562844 129.524368 
L 299.827862 127.083726 
L 303.092881 124.643085 
L 306.3579 122.202443 
L 309.622918 119.761801 
L 312.887937 117.32116 
L 316.152955 114.880518 
L 319.417974 112.439876 
L 322.682993 109.999235 
L 325.948011 107.558593 
L 329.21303 105.117951 
L 332.478048 102.67731 
L 335.743067 100.236668 
L 339.008085 97.796026 
L 342.273104 95.355385 
L 345.538123 92.914743 
L 348.803141 90.474101 
L 352.06816 88.03346 
L 355.333178 85.592818 
L 358.598197 83.152176 
L 361.863216 80.711535 
L 365.128234 78.270893 
L 368.393253 75.830252 
L 371.658271 73.38961 
L 374.92329 70.948968 
L 378.188308 68.508327 
L 381.453327 66.067685 
L 384.718346 63.627043 
L 387.983364 61.186402 
L 391.248383 58.74576 
L 394.513401 56.305118 
L 397.77842 53.864477 
" clip-path="url(#pa4eee4e139)" style="fill: none; stroke: #ff0000; stroke-width: 1.5; stroke-linecap: square"/>
   </g>
   <g id="LineCollection_1">
    <path d="M 73.832727 295.374238 
L 75.250433 295.374238 
" clip-path="url(#pa4eee4e139)" style="fill: none; stroke: #0000ff; stroke-width: 1.5"/>
    <path d="M 105.7311 271.633613 
L 107.148805 271.633613 
" clip-path="url(#pa4eee4e139)" style="fill: none; stroke: #0000ff; stroke-width: 1.5"/>
    <path d="M 138.338325 247.216067 
L 139.75603 247.216067 
" clip-path="url(#pa4eee4e139)" style="fill: none; stroke: #0000ff; stroke-width: 1.5"/>
    <path d="M 170.236697 223.523794 
L 171.654403 223.523794 
" clip-path="url(#pa4eee4e139)" style="fill: none; stroke: #0000ff; stroke-width: 1.5"/>
    <path d="M 202.843922 198.86449 
L 204.261628 198.86449 
" clip-path="url(#pa4eee4e139)" style="fill: none; stroke: #0000ff; stroke-width: 1.5"/>
    <path d="M 236.16 174.446943 
L 237.577705 174.446943 
" clip-path="url(#pa4eee4e139)" style="fill: none; stroke: #0000ff; stroke-width: 1.5"/>
    <path d="M 268.058372 150.512912 
L 269.476078 150.512912 
" clip-path="url(#pa4eee4e139)" style="fill: none; stroke: #0000ff; stroke-width: 1.5"/>
    <path d="M 299.247892 126.82064 
L 300.665597 126.82064 
" clip-path="url(#pa4eee4e139)" style="fill: none; stroke: #0000ff; stroke-width: 1.5"/>
    <path d="M 331.855117 102.886609 
L 333.272823 102.886609 
" clip-path="url(#pa4eee4e139)" style="fill: none; stroke: #0000ff; stroke-width: 1.5"/>
    <path d="M 363.753489 78.469062 
L 365.171195 78.469062 
" clip-path="url(#pa4eee4e139)" style="fill: none; stroke: #0000ff; stroke-width: 1.5"/>
    <path d="M 397.069567 53.809758 
L 398.487273 53.809758 
" clip-path="url(#pa4eee4e139)" style="fill: none; stroke: #0000ff; stroke-width: 1.5"/>
   </g>
   <g id="LineCollection_2">
    <path d="M 74.54158 295.398414 
L 74.54158 295.350062 
" clip-path="url(#pa4eee4e139)" style="fill: none; stroke: #0000ff; stroke-width: 1.5"/>
    <path d="M 106.439952 271.875371 
L 106.439952 271.391856 
" clip-path="url(#pa4eee4e139)" style="fill: none; stroke: #0000ff; stroke-width: 1.5"/>
    <path d="M 139.047177 247.457825 
L 139.047177 246.974309 
" clip-path="url(#pa4eee4e139)" style="fill: none; stroke: #0000ff; stroke-width: 1.5"/>
    <path d="M 170.94555 223.765552 
L 170.94555 223.282036 
" clip-path="url(#pa4eee4e139)" style="fill: none; stroke: #0000ff; stroke-width: 1.5"/>
    <path d="M 203.552775 199.106248 
L 203.552775 198.622732 
" clip-path="url(#pa4eee4e139)" style="fill: none; stroke: #0000ff; stroke-width: 1.5"/>
    <path d="M 236.868853 174.688701 
L 236.868853 174.205185 
" clip-path="url(#pa4eee4e139)" style="fill: none; stroke: #0000ff; stroke-width: 1.5"/>
    <path d="M 268.767225 150.75467 
L 268.767225 150.271155 
" clip-path="url(#pa4eee4e139)" style="fill: none; stroke: #0000ff; stroke-width: 1.5"/>
    <path d="M 299.956745 127.062397 
L 299.956745 126.578882 
" clip-path="url(#pa4eee4e139)" style="fill: none; stroke: #0000ff; stroke-width: 1.5"/>
    <path d="M 332.56397 103.128367 
L 332.56397 102.644851 
" clip-path="url(#pa4eee4e139)" style="fill: none; stroke: #0000ff; stroke-width: 1.5"/>
    <path d="M 364.462342 78.71082 
L 364.462342 78.227304 
" clip-path="url(#pa4eee4e139)" style="fill: none; stroke: #0000ff; stroke-width: 1.5"/>
    <path d="M 397.77842 54.051516 
L 397.77842 53.568 
" clip-path="url(#pa4eee4e139)" style="fill: none; stroke: #0000ff; stroke-width: 1.5"/>
   </g>
   <g id="patch_3">
    <path d="M 57.6 307.584 
L 57.6 41.472 
" style="fill: none; stroke: #000000; stroke-width: 0.8; stroke-linejoin: miter; stroke-linecap: square"/>
   </g>
   <g id="patch_4">
    <path d="M 414.72 307.584 
L 414.72 41.472 
" style="fill: none; stroke: #000000; stroke-width: 0.8; stroke-linejoin: miter; stroke-linecap: square"/>
   </g>
   <g id="patch_5">
    <path d="M 57.6 307.584 
L 414.72 307.584 
" style="fill: none; stroke: #000000; stroke-width: 0.8; stroke-linejoin: miter; stroke-linecap: square"/>
   </g>
   <g id="patch_6">
    <path d="M 57.6 41.472 
L 414.72 41.472 
" style="fill: none; stroke: #000000; stroke-width: 0.8; stroke-linejoin: miter; stroke-linecap: square"/>
   </g>
   <g id="text_14">
    <!-- Regresión lineal $V(I)$ para la resistencia $R_1$ -->
    <g transform="translate(109.32 35.472) scale(0.12 -0.12)">
     <defs>
      <path id="DejaVuSans-52" d="M 2841 2188 
Q 3044 2119 3236 1894 
Q 3428 1669 3622 1275 
L 4263 0 
L 3584 0 
L 2988 1197 
Q 2756 1666 2539 1819 
Q 2322 1972 1947 1972 
L 1259 1972 
L 1259 0 
L 628 0 
L 628 4666 
L 2053 4666 
Q 2853 4666 3247 4331 
Q 3641 3997 3641 3322 
Q 3641 2881 3436 2590 
Q 3231 2300 2841 2188 
z
M 1259 4147 
L 1259 2491 
L 2053 2491 
Q 2509 2491 2742 2702 
Q 2975 2913 2975 3322 
Q 2975 3731 2742 3939 
Q 2509 4147 2053 4147 
L 1259 4147 
z
" transform="scale(0.015625)"/>
      <path id="DejaVuSans-67" d="M 2906 1791 
Q 2906 2416 2648 2759 
Q 2391 3103 1925 3103 
Q 1463 3103 1205 2759 
Q 947 2416 947 1791 
Q 947 1169 1205 825 
Q 1463 481 1925 481 
Q 2391 481 2648 825 
Q 2906 1169 2906 1791 
z
M 3481 434 
Q 3481 -459 3084 -895 
Q 2688 -1331 1869 -1331 
Q 1566 -1331 1297 -1286 
Q 1028 -1241 775 -1147 
L 775 -588 
Q 1028 -725 1275 -790 
Q 1522 -856 1778 -856 
Q 2344 -856 2625 -561 
Q 2906 -266 2906 331 
L 2906 616 
Q 2728 306 2450 153 
Q 2172 0 1784 0 
Q 1141 0 747 490 
Q 353 981 353 1791 
Q 353 2603 747 3093 
Q 1141 3584 1784 3584 
Q 2172 3584 2450 3431 
Q 2728 3278 2906 2969 
L 2906 3500 
L 3481 3500 
L 3481 434 
z
" transform="scale(0.015625)"/>
      <path id="DejaVuSans-72" d="M 2631 2963 
Q 2534 3019 2420 3045 
Q 2306 3072 2169 3072 
Q 1681 3072 1420 2755 
Q 1159 2438 1159 1844 
L 1159 0 
L 581 0 
L 581 3500 
L 1159 3500 
L 1159 2956 
Q 1341 3275 1631 3429 
Q 1922 3584 2338 3584 
Q 2397 3584 2469 3576 
Q 2541 3569 2628 3553 
L 2631 2963 
z
" transform="scale(0.015625)"/>
      <path id="DejaVuSans-f3" d="M 1959 3097 
Q 1497 3097 1228 2736 
Q 959 2375 959 1747 
Q 959 1119 1226 758 
Q 1494 397 1959 397 
Q 2419 397 2687 759 
Q 2956 1122 2956 1747 
Q 2956 2369 2687 2733 
Q 2419 3097 1959 3097 
z
M 1959 3584 
Q 2709 3584 3137 3096 
Q 3566 2609 3566 1747 
Q 3566 888 3137 398 
Q 2709 -91 1959 -91 
Q 1206 -91 779 398 
Q 353 888 353 1747 
Q 353 2609 779 3096 
Q 1206 3584 1959 3584 
z
M 2394 5119 
L 3016 5119 
L 1998 3944 
L 1519 3944 
L 2394 5119 
z
" transform="scale(0.015625)"/>
      <path id="DejaVuSans-Oblique-49" d="M 1081 4666 
L 1716 4666 
L 806 0 
L 172 0 
L 1081 4666 
z
" transform="scale(0.015625)"/>
      <path id="DejaVuSans-70" d="M 1159 525 
L 1159 -1331 
L 581 -1331 
L 581 3500 
L 1159 3500 
L 1159 2969 
Q 1341 3281 1617 3432 
Q 1894 3584 2278 3584 
Q 2916 3584 3314 3078 
Q 3713 2572 3713 1747 
Q 3713 922 3314 415 
Q 2916 -91 2278 -91 
Q 1894 -91 1617 61 
Q 1341 213 1159 525 
z
M 3116 1747 
Q 3116 2381 2855 2742 
Q 2594 3103 2138 3103 
Q 1681 3103 1420 2742 
Q 1159 2381 1159 1747 
Q 1159 1113 1420 752 
Q 1681 391 2138 391 
Q 2594 391 2855 752 
Q 3116 1113 3116 1747 
z
" transform="scale(0.015625)"/>
      <path id="DejaVuSans-63" d="M 3122 3366 
L 3122 2828 
Q 2878 2963 2633 3030 
Q 2388 3097 2138 3097 
Q 1578 3097 1268 2742 
Q 959 2388 959 1747 
Q 959 1106 1268 751 
Q 1578 397 2138 397 
Q 2388 397 2633 464 
Q 2878 531 3122 666 
L 3122 134 
Q 2881 22 2623 -34 
Q 2366 -91 2075 -91 
Q 1284 -91 818 406 
Q 353 903 353 1747 
Q 353 2603 823 3093 
Q 1294 3584 2113 3584 
Q 2378 3584 2631 3529 
Q 2884 3475 3122 3366 
z
" transform="scale(0.015625)"/>
      <path id="DejaVuSans-Oblique-52" d="M 1613 4147 
L 1294 2491 
L 2106 2491 
Q 2584 2491 2879 2755 
Q 3175 3019 3175 3444 
Q 3175 3784 2976 3965 
Q 2778 4147 2406 4147 
L 1613 4147 
z
M 2772 2241 
Q 2972 2194 3105 2009 
Q 3238 1825 3413 1275 
L 3809 0 
L 3144 0 
L 2778 1197 
Q 2638 1659 2453 1815 
Q 2269 1972 1888 1972 
L 1191 1972 
L 806 0 
L 172 0 
L 1081 4666 
L 2503 4666 
Q 3150 4666 3495 4373 
Q 3841 4081 3841 3531 
Q 3841 3044 3547 2687 
Q 3253 2331 2772 2241 
z
" transform="scale(0.015625)"/>
     </defs>
     <use xlink:href="#DejaVuSans-52" transform="translate(0 0.015625)"/>
     <use xlink:href="#DejaVuSans-65" transform="translate(69.482422 0.015625)"/>
     <use xlink:href="#DejaVuSans-67" transform="translate(131.005859 0.015625)"/>
     <use xlink:href="#DejaVuSans-72" transform="translate(194.482422 0.015625)"/>
     <use xlink:href="#DejaVuSans-65" transform="translate(235.595703 0.015625)"/>
     <use xlink:href="#DejaVuSans-73" transform="translate(297.119141 0.015625)"/>
     <use xlink:href="#DejaVuSans-69" transform="translate(349.21875 0.015625)"/>
     <use xlink:href="#DejaVuSans-f3" transform="translate(377.001953 0.015625)"/>
     <use xlink:href="#DejaVuSans-6e" transform="translate(438.183594 0.015625)"/>
     <use xlink:href="#DejaVuSans-20" transform="translate(501.5625 0.015625)"/>
     <use xlink:href="#DejaVuSans-6c" transform="translate(533.349609 0.015625)"/>
     <use xlink:href="#DejaVuSans-69" transform="translate(561.132812 0.015625)"/>
     <use xlink:href="#DejaVuSans-6e" transform="translate(588.916016 0.015625)"/>
     <use xlink:href="#DejaVuSans-65" transform="translate(652.294922 0.015625)"/>
     <use xlink:href="#DejaVuSans-61" transform="translate(713.818359 0.015625)"/>
     <use xlink:href="#DejaVuSans-6c" transform="translate(775.097656 0.015625)"/>
     <use xlink:href="#DejaVuSans-20" transform="translate(802.880859 0.015625)"/>
     <use xlink:href="#DejaVuSans-Oblique-56" transform="translate(834.667969 0.015625)"/>
     <use xlink:href="#DejaVuSans-28" transform="translate(903.076172 0.015625)"/>
     <use xlink:href="#DejaVuSans-Oblique-49" transform="translate(942.089844 0.015625)"/>
     <use xlink:href="#DejaVuSans-29" transform="translate(971.582031 0.015625)"/>
     <use xlink:href="#DejaVuSans-20" transform="translate(1010.595703 0.015625)"/>
     <use xlink:href="#DejaVuSans-70" transform="translate(1042.382812 0.015625)"/>
     <use xlink:href="#DejaVuSans-61" transform="translate(1105.859375 0.015625)"/>
     <use xlink:href="#DejaVuSans-72" transform="translate(1167.138672 0.015625)"/>
     <use xlink:href="#DejaVuSans-61" transform="translate(1208.251953 0.015625)"/>
     <use xlink:href="#DejaVuSans-20" transform="translate(1269.53125 0.015625)"/>
     <use xlink:href="#DejaVuSans-6c" transform="translate(1301.318359 0.015625)"/>
     <use xlink:href="#DejaVuSans-61" transform="translate(1329.101562 0.015625)"/>
     <use xlink:href="#DejaVuSans-20" transform="translate(1390.380859 0.015625)"/>
     <use xlink:href="#DejaVuSans-72" transform="translate(1422.167969 0.015625)"/>
     <use xlink:href="#DejaVuSans-65" transform="translate(1463.28125 0.015625)"/>
     <use xlink:href="#DejaVuSans-73" transform="translate(1524.804688 0.015625)"/>
     <use xlink:href="#DejaVuSans-69" transform="translate(1576.904297 0.015625)"/>
     <use xlink:href="#DejaVuSans-73" transform="translate(1604.6875 0.015625)"/>
     <use xlink:href="#DejaVuSans-74" transform="translate(1656.787109 0.015625)"/>
     <use xlink:href="#DejaVuSans-65" transform="translate(1695.996094 0.015625)"/>
     <use xlink:href="#DejaVuSans-6e" transform="translate(1757.519531 0.015625)"/>
     <use xlink:href="#DejaVuSans-63" transform="translate(1820.898438 0.015625)"/>
     <use xlink:href="#DejaVuSans-69" transform="translate(1875.878906 0.015625)"/>
     <use xlink:href="#DejaVuSans-61" transform="translate(1903.662109 0.015625)"/>
     <use xlink:href="#DejaVuSans-20" transform="translate(1964.941406 0.015625)"/>
     <use xlink:href="#DejaVuSans-Oblique-52" transform="translate(1996.728516 0.015625)"/>
     <use xlink:href="#DejaVuSans-31" transform="translate(2066.210938 -16.390625) scale(0.7)"/>
    </g>
   </g>
   <g id="legend_1">
    <g id="patch_7">
     <path d="M 64.6 78.82825 
L 170.954687 78.82825 
Q 172.954687 78.82825 172.954687 76.82825 
L 172.954687 48.472 
Q 172.954687 46.472 170.954687 46.472 
L 64.6 46.472 
Q 62.6 46.472 62.6 48.472 
L 62.6 76.82825 
Q 62.6 78.82825 64.6 78.82825 
z
" style="fill: #ffffff; opacity: 0.8; stroke: #cccccc; stroke-linejoin: miter"/>
    </g>
    <g id="line2d_23">
     <path d="M 66.6 54.570437 
L 76.6 54.570437 
L 86.6 54.570437 
" style="fill: none; stroke: #ff0000; stroke-width: 1.5; stroke-linecap: square"/>
    </g>
    <g id="text_15">
     <!-- Recta ajustada -->
     <g transform="translate(94.6 58.070437) scale(0.1 -0.1)">
      <defs>
       <path id="DejaVuSans-75" d="M 544 1381 
L 544 3500 
L 1119 3500 
L 1119 1403 
Q 1119 906 1312 657 
Q 1506 409 1894 409 
Q 2359 409 2629 706 
Q 2900 1003 2900 1516 
L 2900 3500 
L 3475 3500 
L 3475 0 
L 2900 0 
L 2900 538 
Q 2691 219 2414 64 
Q 2138 -91 1772 -91 
Q 1169 -91 856 284 
Q 544 659 544 1381 
z
M 1991 3584 
L 1991 3584 
z
" transform="scale(0.015625)"/>
      </defs>
      <use xlink:href="#DejaVuSans-52"/>
      <use xlink:href="#DejaVuSans-65" transform="translate(64.982422 0)"/>
      <use xlink:href="#DejaVuSans-63" transform="translate(126.505859 0)"/>
      <use xlink:href="#DejaVuSans-74" transform="translate(181.486328 0)"/>
      <use xlink:href="#DejaVuSans-61" transform="translate(220.695312 0)"/>
      <use xlink:href="#DejaVuSans-20" transform="translate(281.974609 0)"/>
      <use xlink:href="#DejaVuSans-61" transform="translate(313.761719 0)"/>
      <use xlink:href="#DejaVuSans-6a" transform="translate(375.041016 0)"/>
      <use xlink:href="#DejaVuSans-75" transform="translate(402.824219 0)"/>
      <use xlink:href="#DejaVuSans-73" transform="translate(466.203125 0)"/>
      <use xlink:href="#DejaVuSans-74" transform="translate(518.302734 0)"/>
      <use xlink:href="#DejaVuSans-61" transform="translate(557.511719 0)"/>
      <use xlink:href="#DejaVuSans-64" transform="translate(618.791016 0)"/>
      <use xlink:href="#DejaVuSans-61" transform="translate(682.267578 0)"/>
     </g>
    </g>
    <g id="LineCollection_3">
     <path d="M 71.6 69.248562 
L 81.6 69.248562 
" style="fill: none; stroke: #0000ff; stroke-width: 1.5"/>
    </g>
    <g id="LineCollection_4">
     <path d="M 76.6 74.248562 
L 76.6 64.248562 
" style="fill: none; stroke: #0000ff; stroke-width: 1.5"/>
    </g>
    <g id="line2d_24"/>
    <g id="line2d_25">
     <g>
      <use xlink:href="#meacf8e75f2" x="76.6" y="69.248562" style="fill: #0000ff; stroke: #0000ff"/>
     </g>
    </g>
    <g id="text_16">
     <!-- Datos -->
     <g transform="translate(94.6 72.748562) scale(0.1 -0.1)">
      <defs>
       <path id="DejaVuSans-44" d="M 1259 4147 
L 1259 519 
L 2022 519 
Q 2988 519 3436 956 
Q 3884 1394 3884 2338 
Q 3884 3275 3436 3711 
Q 2988 4147 2022 4147 
L 1259 4147 
z
M 628 4666 
L 1925 4666 
Q 3281 4666 3915 4102 
Q 4550 3538 4550 2338 
Q 4550 1131 3912 565 
Q 3275 0 1925 0 
L 628 0 
L 628 4666 
z
" transform="scale(0.015625)"/>
      </defs>
      <use xlink:href="#DejaVuSans-44"/>
      <use xlink:href="#DejaVuSans-61" transform="translate(77.001953 0)"/>
      <use xlink:href="#DejaVuSans-74" transform="translate(138.28125 0)"/>
      <use xlink:href="#DejaVuSans-6f" transform="translate(177.490234 0)"/>
      <use xlink:href="#DejaVuSans-73" transform="translate(238.671875 0)"/>
     </g>
    </g>
   </g>
  </g>
 </g>
 <defs>
  <clipPath id="pa4eee4e139">
   <rect x="57.6" y="41.472" width="357.12" height="266.112"/>
  </clipPath>
 </defs>
</svg>
