<?xml version="1.0" encoding="utf-8" standalone="no"?>
<!DOCTYPE svg PUBLIC "-//W3C//DTD SVG 1.1//EN"
  "http://www.w3.org/Graphics/SVG/1.1/DTD/svg11.dtd">
<svg xmlns:xlink="http://www.w3.org/1999/xlink" width="460.8pt" height="345.6pt" viewBox="0 0 460.8 345.6" xmlns="http://www.w3.org/2000/svg" version="1.1">
 <metadata>
  <rdf:RDF xmlns:dc="http://purl.org/dc/elements/1.1/" xmlns:cc="http://creativecommons.org/ns#" xmlns:rdf="http://www.w3.org/1999/02/22-rdf-syntax-ns#">
   <cc:Work>
    <dc:type rdf:resource="http://purl.org/dc/dcmitype/StillImage"/>
    <dc:date>2026-03-07T12:32:36.276029</dc:date>
    <dc:format>image/svg+xml</dc:format>
    <dc:creator>
     <cc:Agent>
      <dc:title>Matplotlib v3.10.8, https://matplotlib.org/</dc:title>
     </cc:Agent>
    </dc:creator>
   </cc:Work>
  </rdf:RDF>
 </metadata>
 <defs>
  <style type="text/css">*{stroke-linejoin: round; stroke-linecap: butt}</style>
 </defs>
 <g id="figure_1">
  <g id="patch_1">
   <path d="M 0 345.6 
L 460.8 345.6 
L 460.8 0 
L 0 0 
z
" style="fill: #ffffff"/>
  </g>
  <g id="axes_1">
   <g id="patch_2">
    <path d="M 57.6 307.584 
L 414.72 307.584 
L 414.72 41.472 
L 57.6 41.472 
z
" style="fill: #ffffff"/>
   </g>
   <g id="PathCollection_1">
    <defs>
     <path id="m2e31e1fa83" d="M 0 3 
C 0.795609 3 1.55874 2.683901 2.12132 2.12132 
C 2.683901 1.55874 3 0.795609 3 0 
C 3 -0.795609 2.683901 -1.55874 2.12132 -2.12132 
C 1.55874 -2.683901 0.795609 -3 0 -3 
C -0.795609 -3 -1.55874 -2.683901 -2.12132 -2.12132 
C -2.683901 -1.55874 -3 -0.795609 -3 0 
C -3 0.795609 -2.683901 1.55874 -2.12132 2.12132 
C -1.55874 2.683901 -0.795609 3 0 3 
z
" style="stroke: #ffd700"/>
    </defs>
    <g clip-path="url(#pc84416c862)">
     <use xlink:href="#m2e31e1fa83" x="283.159526" y="209.7089" style="fill: #ffd700; stroke: #ffd700"/>
    </g>
   </g>
   <g id="PathCollection_2">
    <defs>
     <path id="m2b6e92d4ad" d="M 0 3 
C 0.795609 3 1.55874 2.683901 2.12132 2.12132 
C 2.683901 1.55874 3 0.795609 3 0 
C 3 -0.795609 2.683901 -1.55874 2.12132 -2.12132 
C 1.55874 -2.683901 0.795609 -3 0 -3 
C -0.795609 -3 -1.55874 -2.683901 -2.12132 -2.12132 
C -2.683901 -1.55874 -3 -0.795609 -3 0 
C -3 0.795609 -2.683901 1.55874 -2.12132 2.12132 
C -1.55874 2.683901 -0.795609 3 0 3 
z
" style="stroke: #00ffff"/>
    </defs>
    <g clip-path="url(#pc84416c862)">
     <use xlink:href="#m2b6e92d4ad" x="283.159526" y="188.834539" style="fill: #00ffff; stroke: #00ffff"/>
    </g>
   </g>
   <g id="matplotlib.axis_1">
    <g id="xtick_1">
     <g id="line2d_1">
      <path d="M 73.832727 307.584 
L 73.832727 41.472 
" clip-path="url(#pc84416c862)" style="fill: none; stroke: #b0b0b0; stroke-width: 0.8; stroke-linecap: square"/>
     </g>
     <g id="line2d_2">
      <defs>
       <path id="m5ef86a53e6" d="M 0 0 
L 0 3.5 
" style="stroke: #000000; stroke-width: 0.8"/>
      </defs>
      <g>
       <use xlink:href="#m5ef86a53e6" x="73.832727" y="307.584" style="stroke: #000000; stroke-width: 0.8"/>
      </g>
     </g>
     <g id="text_1">
      <!-- 2.00 -->
      <g transform="translate(62.699915 322.182437) scale(0.1 -0.1)">
       <defs>
        <path id="DejaVuSans-32" d="M 1228 531 
L 3431 531 
L 3431 0 
L 469 0 
L 469 531 
Q 828 903 1448 1529 
Q 2069 2156 2228 2338 
Q 2531 2678 2651 2914 
Q 2772 3150 2772 3378 
Q 2772 3750 2511 3984 
Q 2250 4219 1831 4219 
Q 1534 4219 1204 4116 
Q 875 4013 500 3803 
L 500 4441 
Q 881 4594 1212 4672 
Q 1544 4750 1819 4750 
Q 2544 4750 2975 4387 
Q 3406 4025 3406 3419 
Q 3406 3131 3298 2873 
Q 3191 2616 2906 2266 
Q 2828 2175 2409 1742 
Q 1991 1309 1228 531 
z
" transform="scale(0.015625)"/>
        <path id="DejaVuSans-2e" d="M 684 794 
L 1344 794 
L 1344 0 
L 684 0 
L 684 794 
z
" transform="scale(0.015625)"/>
        <path id="DejaVuSans-30" d="M 2034 4250 
Q 1547 4250 1301 3770 
Q 1056 3291 1056 2328 
Q 1056 1369 1301 889 
Q 1547 409 2034 409 
Q 2525 409 2770 889 
Q 3016 1369 3016 2328 
Q 3016 3291 2770 3770 
Q 2525 4250 2034 4250 
z
M 2034 4750 
Q 2819 4750 3233 4129 
Q 3647 3509 3647 2328 
Q 3647 1150 3233 529 
Q 2819 -91 2034 -91 
Q 1250 -91 836 529 
Q 422 1150 422 2328 
Q 422 3509 836 4129 
Q 1250 4750 2034 4750 
z
" transform="scale(0.015625)"/>
       </defs>
       <use xlink:href="#DejaVuSans-32"/>
       <use xlink:href="#DejaVuSans-2e" transform="translate(63.623047 0)"/>
       <use xlink:href="#DejaVuSans-30" transform="translate(95.410156 0)"/>
       <use xlink:href="#DejaVuSans-30" transform="translate(159.033203 0)"/>
      </g>
     </g>
    </g>
    <g id="xtick_2">
     <g id="line2d_3">
      <path d="M 120.447644 307.584 
L 120.447644 41.472 
" clip-path="url(#pc84416c862)" style="fill: none; stroke: #b0b0b0; stroke-width: 0.8; stroke-linecap: square"/>
     </g>
     <g id="line2d_4">
      <g>
       <use xlink:href="#m5ef86a53e6" x="120.447644" y="307.584" style="stroke: #000000; stroke-width: 0.8"/>
      </g>
     </g>
     <g id="text_2">
      <!-- 2.25 -->
      <g transform="translate(109.314831 322.182437) scale(0.1 -0.1)">
       <defs>
        <path id="DejaVuSans-35" d="M 691 4666 
L 3169 4666 
L 3169 4134 
L 1269 4134 
L 1269 2991 
Q 1406 3038 1543 3061 
Q 1681 3084 1819 3084 
Q 2600 3084 3056 2656 
Q 3513 2228 3513 1497 
Q 3513 744 3044 326 
Q 2575 -91 1722 -91 
Q 1428 -91 1123 -41 
Q 819 9 494 109 
L 494 744 
Q 775 591 1075 516 
Q 1375 441 1709 441 
Q 2250 441 2565 725 
Q 2881 1009 2881 1497 
Q 2881 1984 2565 2268 
Q 2250 2553 1709 2553 
Q 1456 2553 1204 2497 
Q 953 2441 691 2322 
L 691 4666 
z
" transform="scale(0.015625)"/>
       </defs>
       <use xlink:href="#DejaVuSans-32"/>
       <use xlink:href="#DejaVuSans-2e" transform="translate(63.623047 0)"/>
       <use xlink:href="#DejaVuSans-32" transform="translate(95.410156 0)"/>
       <use xlink:href="#DejaVuSans-35" transform="translate(159.033203 0)"/>
      </g>
     </g>
    </g>
    <g id="xtick_3">
     <g id="line2d_5">
      <path d="M 167.06256 307.584 
L 167.06256 41.472 
" clip-path="url(#pc84416c862)" style="fill: none; stroke: #b0b0b0; stroke-width: 0.8; stroke-linecap: square"/>
     </g>
     <g id="line2d_6">
      <g>
       <use xlink:href="#m5ef86a53e6" x="167.06256" y="307.584" style="stroke: #000000; stroke-width: 0.8"/>
      </g>
     </g>
     <g id="text_3">
      <!-- 2.50 -->
      <g transform="translate(155.929748 322.182437) scale(0.1 -0.1)">
       <use xlink:href="#DejaVuSans-32"/>
       <use xlink:href="#DejaVuSans-2e" transform="translate(63.623047 0)"/>
       <use xlink:href="#DejaVuSans-35" transform="translate(95.410156 0)"/>
       <use xlink:href="#DejaVuSans-30" transform="translate(159.033203 0)"/>
      </g>
     </g>
    </g>
    <g id="xtick_4">
     <g id="line2d_7">
      <path d="M 213.677477 307.584 
L 213.677477 41.472 
" clip-path="url(#pc84416c862)" style="fill: none; stroke: #b0b0b0; stroke-width: 0.8; stroke-linecap: square"/>
     </g>
     <g id="line2d_8">
      <g>
       <use xlink:href="#m5ef86a53e6" x="213.677477" y="307.584" style="stroke: #000000; stroke-width: 0.8"/>
      </g>
     </g>
     <g id="text_4">
      <!-- 2.75 -->
      <g transform="translate(202.544664 322.182437) scale(0.1 -0.1)">
       <defs>
        <path id="DejaVuSans-37" d="M 525 4666 
L 3525 4666 
L 3525 4397 
L 1831 0 
L 1172 0 
L 2766 4134 
L 525 4134 
L 525 4666 
z
" transform="scale(0.015625)"/>
       </defs>
       <use xlink:href="#DejaVuSans-32"/>
       <use xlink:href="#DejaVuSans-2e" transform="translate(63.623047 0)"/>
       <use xlink:href="#DejaVuSans-37" transform="translate(95.410156 0)"/>
       <use xlink:href="#DejaVuSans-35" transform="translate(159.033203 0)"/>
      </g>
     </g>
    </g>
    <g id="xtick_5">
     <g id="line2d_9">
      <path d="M 260.292393 307.584 
L 260.292393 41.472 
" clip-path="url(#pc84416c862)" style="fill: none; stroke: #b0b0b0; stroke-width: 0.8; stroke-linecap: square"/>
     </g>
     <g id="line2d_10">
      <g>
       <use xlink:href="#m5ef86a53e6" x="260.292393" y="307.584" style="stroke: #000000; stroke-width: 0.8"/>
      </g>
     </g>
     <g id="text_5">
      <!-- 3.00 -->
      <g transform="translate(249.159581 322.182437) scale(0.1 -0.1)">
       <defs>
        <path id="DejaVuSans-33" d="M 2597 2516 
Q 3050 2419 3304 2112 
Q 3559 1806 3559 1356 
Q 3559 666 3084 287 
Q 2609 -91 1734 -91 
Q 1441 -91 1130 -33 
Q 819 25 488 141 
L 488 750 
Q 750 597 1062 519 
Q 1375 441 1716 441 
Q 2309 441 2620 675 
Q 2931 909 2931 1356 
Q 2931 1769 2642 2001 
Q 2353 2234 1838 2234 
L 1294 2234 
L 1294 2753 
L 1863 2753 
Q 2328 2753 2575 2939 
Q 2822 3125 2822 3475 
Q 2822 3834 2567 4026 
Q 2313 4219 1838 4219 
Q 1578 4219 1281 4162 
Q 984 4106 628 3988 
L 628 4550 
Q 988 4650 1302 4700 
Q 1616 4750 1894 4750 
Q 2613 4750 3031 4423 
Q 3450 4097 3450 3541 
Q 3450 3153 3228 2886 
Q 3006 2619 2597 2516 
z
" transform="scale(0.015625)"/>
       </defs>
       <use xlink:href="#DejaVuSans-33"/>
       <use xlink:href="#DejaVuSans-2e" transform="translate(63.623047 0)"/>
       <use xlink:href="#DejaVuSans-30" transform="translate(95.410156 0)"/>
       <use xlink:href="#DejaVuSans-30" transform="translate(159.033203 0)"/>
      </g>
     </g>
    </g>
    <g id="xtick_6">
     <g id="line2d_11">
      <path d="M 306.90731 307.584 
L 306.90731 41.472 
" clip-path="url(#pc84416c862)" style="fill: none; stroke: #b0b0b0; stroke-width: 0.8; stroke-linecap: square"/>
     </g>
     <g id="line2d_12">
      <g>
       <use xlink:href="#m5ef86a53e6" x="306.90731" y="307.584" style="stroke: #000000; stroke-width: 0.8"/>
      </g>
     </g>
     <g id="text_6">
      <!-- 3.25 -->
      <g transform="translate(295.774497 322.182437) scale(0.1 -0.1)">
       <use xlink:href="#DejaVuSans-33"/>
       <use xlink:href="#DejaVuSans-2e" transform="translate(63.623047 0)"/>
       <use xlink:href="#DejaVuSans-32" transform="translate(95.410156 0)"/>
       <use xlink:href="#DejaVuSans-35" transform="translate(159.033203 0)"/>
      </g>
     </g>
    </g>
    <g id="xtick_7">
     <g id="line2d_13">
      <path d="M 353.522226 307.584 
L 353.522226 41.472 
" clip-path="url(#pc84416c862)" style="fill: none; stroke: #b0b0b0; stroke-width: 0.8; stroke-linecap: square"/>
     </g>
     <g id="line2d_14">
      <g>
       <use xlink:href="#m5ef86a53e6" x="353.522226" y="307.584" style="stroke: #000000; stroke-width: 0.8"/>
      </g>
     </g>
     <g id="text_7">
      <!-- 3.50 -->
      <g transform="translate(342.389414 322.182437) scale(0.1 -0.1)">
       <use xlink:href="#DejaVuSans-33"/>
       <use xlink:href="#DejaVuSans-2e" transform="translate(63.623047 0)"/>
       <use xlink:href="#DejaVuSans-35" transform="translate(95.410156 0)"/>
       <use xlink:href="#DejaVuSans-30" transform="translate(159.033203 0)"/>
      </g>
     </g>
    </g>
    <g id="xtick_8">
     <g id="line2d_15">
      <path d="M 400.137143 307.584 
L 400.137143 41.472 
" clip-path="url(#pc84416c862)" style="fill: none; stroke: #b0b0b0; stroke-width: 0.8; stroke-linecap: square"/>
     </g>
     <g id="line2d_16">
      <g>
       <use xlink:href="#m5ef86a53e6" x="400.137143" y="307.584" style="stroke: #000000; stroke-width: 0.8"/>
      </g>
     </g>
     <g id="text_8">
      <!-- 3.75 -->
      <g transform="translate(389.00433 322.182437) scale(0.1 -0.1)">
       <use xlink:href="#DejaVuSans-33"/>
       <use xlink:href="#DejaVuSans-2e" transform="translate(63.623047 0)"/>
       <use xlink:href="#DejaVuSans-37" transform="translate(95.410156 0)"/>
       <use xlink:href="#DejaVuSans-35" transform="translate(159.033203 0)"/>
      </g>
     </g>
    </g>
    <g id="text_9">
     <!-- $\log f \ (-)$ -->
     <g transform="translate(216.21 335.862125) scale(0.1 -0.1)">
      <defs>
       <path id="DejaVuSans-6c" d="M 603 4863 
L 1178 4863 
L 1178 0 
L 603 0 
L 603 4863 
z
" transform="scale(0.015625)"/>
       <path id="DejaVuSans-6f" d="M 1959 3097 
Q 1497 3097 1228 2736 
Q 959 2375 959 1747 
Q 959 1119 1226 758 
Q 1494 397 1959 397 
Q 2419 397 2687 759 
Q 2956 1122 2956 1747 
Q 2956 2369 2687 2733 
Q 2419 3097 1959 3097 
z
M 1959 3584 
Q 2709 3584 3137 3096 
Q 3566 2609 3566 1747 
Q 3566 888 3137 398 
Q 2709 -91 1959 -91 
Q 1206 -91 779 398 
Q 353 888 353 1747 
Q 353 2609 779 3096 
Q 1206 3584 1959 3584 
z
" transform="scale(0.015625)"/>
       <path id="DejaVuSans-67" d="M 2906 1791 
Q 2906 2416 2648 2759 
Q 2391 3103 1925 3103 
Q 1463 3103 1205 2759 
Q 947 2416 947 1791 
Q 947 1169 1205 825 
Q 1463 481 1925 481 
Q 2391 481 2648 825 
Q 2906 1169 2906 1791 
z
M 3481 434 
Q 3481 -459 3084 -895 
Q 2688 -1331 1869 -1331 
Q 1566 -1331 1297 -1286 
Q 1028 -1241 775 -1147 
L 775 -588 
Q 1028 -725 1275 -790 
Q 1522 -856 1778 -856 
Q 2344 -856 2625 -561 
Q 2906 -266 2906 331 
L 2906 616 
Q 2728 306 2450 153 
Q 2172 0 1784 0 
Q 1141 0 747 490 
Q 353 981 353 1791 
Q 353 2603 747 3093 
Q 1141 3584 1784 3584 
Q 2172 3584 2450 3431 
Q 2728 3278 2906 2969 
L 2906 3500 
L 3481 3500 
L 3481 434 
z
" transform="scale(0.015625)"/>
       <path id="DejaVuSans-Oblique-66" d="M 3059 4863 
L 2969 4384 
L 2419 4384 
Q 2106 4384 1964 4261 
Q 1822 4138 1753 3809 
L 1691 3500 
L 2638 3500 
L 2553 3053 
L 1606 3053 
L 1013 0 
L 434 0 
L 1031 3053 
L 481 3053 
L 563 3500 
L 1113 3500 
L 1159 3744 
Q 1278 4363 1576 4613 
Q 1875 4863 2516 4863 
L 3059 4863 
z
" transform="scale(0.015625)"/>
       <path id="DejaVuSans-28" d="M 1984 4856 
Q 1566 4138 1362 3434 
Q 1159 2731 1159 2009 
Q 1159 1288 1364 580 
Q 1569 -128 1984 -844 
L 1484 -844 
Q 1016 -109 783 600 
Q 550 1309 550 2009 
Q 550 2706 781 3412 
Q 1013 4119 1484 4856 
L 1984 4856 
z
" transform="scale(0.015625)"/>
       <path id="DejaVuSans-2212" d="M 678 2272 
L 4684 2272 
L 4684 1741 
L 678 1741 
L 678 2272 
z
" transform="scale(0.015625)"/>
       <path id="DejaVuSans-29" d="M 513 4856 
L 1013 4856 
Q 1481 4119 1714 3412 
Q 1947 2706 1947 2009 
Q 1947 1309 1714 600 
Q 1481 -109 1013 -844 
L 513 -844 
Q 928 -128 1133 580 
Q 1338 1288 1338 2009 
Q 1338 2731 1133 3434 
Q 928 4138 513 4856 
z
" transform="scale(0.015625)"/>
      </defs>
      <use xlink:href="#DejaVuSans-6c" transform="translate(0 0.015625)"/>
      <use xlink:href="#DejaVuSans-6f" transform="translate(27.783203 0.015625)"/>
      <use xlink:href="#DejaVuSans-67" transform="translate(88.964844 0.015625)"/>
      <use xlink:href="#DejaVuSans-Oblique-66" transform="translate(168.677083 0.015625)"/>
      <use xlink:href="#DejaVuSans-28" transform="translate(236.352539 0.015625)"/>
      <use xlink:href="#DejaVuSans-2212" transform="translate(275.366211 0.015625)"/>
      <use xlink:href="#DejaVuSans-29" transform="translate(359.155273 0.015625)"/>
     </g>
    </g>
   </g>
   <g id="matplotlib.axis_2">
    <g id="ytick_1">
     <g id="line2d_17">
      <path d="M 57.6 279.051937 
L 414.72 279.051937 
" clip-path="url(#pc84416c862)" style="fill: none; stroke: #b0b0b0; stroke-width: 0.8; stroke-linecap: square"/>
     </g>
     <g id="line2d_18">
      <defs>
       <path id="m89da4e6b1d" d="M 0 0 
L -3.5 0 
" style="stroke: #000000; stroke-width: 0.8"/>
      </defs>
      <g>
       <use xlink:href="#m89da4e6b1d" x="57.6" y="279.051937" style="stroke: #000000; stroke-width: 0.8"/>
      </g>
     </g>
     <g id="text_10">
      <!-- 70 -->
      <g transform="translate(37.875 282.851156) scale(0.1 -0.1)">
       <use xlink:href="#DejaVuSans-37"/>
       <use xlink:href="#DejaVuSans-30" transform="translate(63.623047 0)"/>
      </g>
     </g>
    </g>
    <g id="ytick_2">
     <g id="line2d_19">
      <path d="M 57.6 244.380419 
L 414.72 244.380419 
" clip-path="url(#pc84416c862)" style="fill: none; stroke: #b0b0b0; stroke-width: 0.8; stroke-linecap: square"/>
     </g>
     <g id="line2d_20">
      <g>
       <use xlink:href="#m89da4e6b1d" x="57.6" y="244.380419" style="stroke: #000000; stroke-width: 0.8"/>
      </g>
     </g>
     <g id="text_11">
      <!-- 75 -->
      <g transform="translate(37.875 248.179638) scale(0.1 -0.1)">
       <use xlink:href="#DejaVuSans-37"/>
       <use xlink:href="#DejaVuSans-35" transform="translate(63.623047 0)"/>
      </g>
     </g>
    </g>
    <g id="ytick_3">
     <g id="line2d_21">
      <path d="M 57.6 209.7089 
L 414.72 209.7089 
" clip-path="url(#pc84416c862)" style="fill: none; stroke: #b0b0b0; stroke-width: 0.8; stroke-linecap: square"/>
     </g>
     <g id="line2d_22">
      <g>
       <use xlink:href="#m89da4e6b1d" x="57.6" y="209.7089" style="stroke: #000000; stroke-width: 0.8"/>
      </g>
     </g>
     <g id="text_12">
      <!-- 80 -->
      <g transform="translate(37.875 213.508119) scale(0.1 -0.1)">
       <defs>
        <path id="DejaVuSans-38" d="M 2034 2216 
Q 1584 2216 1326 1975 
Q 1069 1734 1069 1313 
Q 1069 891 1326 650 
Q 1584 409 2034 409 
Q 2484 409 2743 651 
Q 3003 894 3003 1313 
Q 3003 1734 2745 1975 
Q 2488 2216 2034 2216 
z
M 1403 2484 
Q 997 2584 770 2862 
Q 544 3141 544 3541 
Q 544 4100 942 4425 
Q 1341 4750 2034 4750 
Q 2731 4750 3128 4425 
Q 3525 4100 3525 3541 
Q 3525 3141 3298 2862 
Q 3072 2584 2669 2484 
Q 3125 2378 3379 2068 
Q 3634 1759 3634 1313 
Q 3634 634 3220 271 
Q 2806 -91 2034 -91 
Q 1263 -91 848 271 
Q 434 634 434 1313 
Q 434 1759 690 2068 
Q 947 2378 1403 2484 
z
M 1172 3481 
Q 1172 3119 1398 2916 
Q 1625 2713 2034 2713 
Q 2441 2713 2670 2916 
Q 2900 3119 2900 3481 
Q 2900 3844 2670 4047 
Q 2441 4250 2034 4250 
Q 1625 4250 1398 4047 
Q 1172 3844 1172 3481 
z
" transform="scale(0.015625)"/>
       </defs>
       <use xlink:href="#DejaVuSans-38"/>
       <use xlink:href="#DejaVuSans-30" transform="translate(63.623047 0)"/>
      </g>
     </g>
    </g>
    <g id="ytick_4">
     <g id="line2d_23">
      <path d="M 57.6 175.037382 
L 414.72 175.037382 
" clip-path="url(#pc84416c862)" style="fill: none; stroke: #b0b0b0; stroke-width: 0.8; stroke-linecap: square"/>
     </g>
     <g id="line2d_24">
      <g>
       <use xlink:href="#m89da4e6b1d" x="57.6" y="175.037382" style="stroke: #000000; stroke-width: 0.8"/>
      </g>
     </g>
     <g id="text_13">
      <!-- 85 -->
      <g transform="translate(37.875 178.836601) scale(0.1 -0.1)">
       <use xlink:href="#DejaVuSans-38"/>
       <use xlink:href="#DejaVuSans-35" transform="translate(63.623047 0)"/>
      </g>
     </g>
    </g>
    <g id="ytick_5">
     <g id="line2d_25">
      <path d="M 57.6 140.365864 
L 414.72 140.365864 
" clip-path="url(#pc84416c862)" style="fill: none; stroke: #b0b0b0; stroke-width: 0.8; stroke-linecap: square"/>
     </g>
     <g id="line2d_26">
      <g>
       <use xlink:href="#m89da4e6b1d" x="57.6" y="140.365864" style="stroke: #000000; stroke-width: 0.8"/>
      </g>
     </g>
     <g id="text_14">
      <!-- 90 -->
      <g transform="translate(37.875 144.165083) scale(0.1 -0.1)">
       <defs>
        <path id="DejaVuSans-39" d="M 703 97 
L 703 672 
Q 941 559 1184 500 
Q 1428 441 1663 441 
Q 2288 441 2617 861 
Q 2947 1281 2994 2138 
Q 2813 1869 2534 1725 
Q 2256 1581 1919 1581 
Q 1219 1581 811 2004 
Q 403 2428 403 3163 
Q 403 3881 828 4315 
Q 1253 4750 1959 4750 
Q 2769 4750 3195 4129 
Q 3622 3509 3622 2328 
Q 3622 1225 3098 567 
Q 2575 -91 1691 -91 
Q 1453 -91 1209 -44 
Q 966 3 703 97 
z
M 1959 2075 
Q 2384 2075 2632 2365 
Q 2881 2656 2881 3163 
Q 2881 3666 2632 3958 
Q 2384 4250 1959 4250 
Q 1534 4250 1286 3958 
Q 1038 3666 1038 3163 
Q 1038 2656 1286 2365 
Q 1534 2075 1959 2075 
z
" transform="scale(0.015625)"/>
       </defs>
       <use xlink:href="#DejaVuSans-39"/>
       <use xlink:href="#DejaVuSans-30" transform="translate(63.623047 0)"/>
      </g>
     </g>
    </g>
    <g id="ytick_6">
     <g id="line2d_27">
      <path d="M 57.6 105.694345 
L 414.72 105.694345 
" clip-path="url(#pc84416c862)" style="fill: none; stroke: #b0b0b0; stroke-width: 0.8; stroke-linecap: square"/>
     </g>
     <g id="line2d_28">
      <g>
       <use xlink:href="#m89da4e6b1d" x="57.6" y="105.694345" style="stroke: #000000; stroke-width: 0.8"/>
      </g>
     </g>
     <g id="text_15">
      <!-- 95 -->
      <g transform="translate(37.875 109.493564) scale(0.1 -0.1)">
       <use xlink:href="#DejaVuSans-39"/>
       <use xlink:href="#DejaVuSans-35" transform="translate(63.623047 0)"/>
      </g>
     </g>
    </g>
    <g id="ytick_7">
     <g id="line2d_29">
      <path d="M 57.6 71.022827 
L 414.72 71.022827 
" clip-path="url(#pc84416c862)" style="fill: none; stroke: #b0b0b0; stroke-width: 0.8; stroke-linecap: square"/>
     </g>
     <g id="line2d_30">
      <g>
       <use xlink:href="#m89da4e6b1d" x="57.6" y="71.022827" style="stroke: #000000; stroke-width: 0.8"/>
      </g>
     </g>
     <g id="text_16">
      <!-- 100 -->
      <g transform="translate(31.5125 74.822046) scale(0.1 -0.1)">
       <defs>
        <path id="DejaVuSans-31" d="M 794 531 
L 1825 531 
L 1825 4091 
L 703 3866 
L 703 4441 
L 1819 4666 
L 2450 4666 
L 2450 531 
L 3481 531 
L 3481 0 
L 794 0 
L 794 531 
z
" transform="scale(0.015625)"/>
       </defs>
       <use xlink:href="#DejaVuSans-31"/>
       <use xlink:href="#DejaVuSans-30" transform="translate(63.623047 0)"/>
       <use xlink:href="#DejaVuSans-30" transform="translate(127.246094 0)"/>
      </g>
     </g>
    </g>
    <g id="text_17">
     <!-- $20\log Z \ (-)$ -->
     <g transform="translate(25.4125 202.478) rotate(-90) scale(0.1 -0.1)">
      <defs>
       <path id="DejaVuSans-Oblique-5a" d="M 838 4666 
L 4500 4666 
L 4409 4184 
L 794 531 
L 3769 531 
L 3669 0 
L -141 0 
L -50 481 
L 3566 4134 
L 738 4134 
L 838 4666 
z
" transform="scale(0.015625)"/>
      </defs>
      <use xlink:href="#DejaVuSans-32" transform="translate(0 0.015625)"/>
      <use xlink:href="#DejaVuSans-30" transform="translate(63.623047 0.015625)"/>
      <use xlink:href="#DejaVuSans-6c" transform="translate(127.246094 0.015625)"/>
      <use xlink:href="#DejaVuSans-6f" transform="translate(155.029297 0.015625)"/>
      <use xlink:href="#DejaVuSans-67" transform="translate(216.210938 0.015625)"/>
      <use xlink:href="#DejaVuSans-Oblique-5a" transform="translate(295.923176 0.015625)"/>
      <use xlink:href="#DejaVuSans-28" transform="translate(396.899414 0.015625)"/>
      <use xlink:href="#DejaVuSans-2212" transform="translate(435.913086 0.015625)"/>
      <use xlink:href="#DejaVuSans-29" transform="translate(519.702148 0.015625)"/>
     </g>
    </g>
   </g>
   <g id="line2d_31">
    <path d="M 283.159526 307.584 
L 283.159526 41.472 
" clip-path="url(#pc84416c862)" style="fill: none; stroke-dasharray: 5.55,2.4; stroke-dashoffset: 0; stroke: #ff8c00; stroke-width: 1.5"/>
   </g>
   <g id="LineCollection_1">
    <path d="M 73.832727 54.119608 
L 73.832727 53.568 
" clip-path="url(#pc84416c862)" style="fill: none; stroke: #0000ff; stroke-width: 1.5"/>
    <path d="M 129.96268 95.221653 
L 129.96268 94.950448 
" clip-path="url(#pc84416c862)" style="fill: none; stroke: #0000ff; stroke-width: 1.5"/>
    <path d="M 162.796597 118.813833 
L 162.796597 118.549962 
" clip-path="url(#pc84416c862)" style="fill: none; stroke: #0000ff; stroke-width: 1.5"/>
    <path d="M 186.092632 135.080811 
L 186.092632 134.699442 
" clip-path="url(#pc84416c862)" style="fill: none; stroke: #0000ff; stroke-width: 1.5"/>
    <path d="M 204.162441 146.974245 
L 204.162441 146.925673 
" clip-path="url(#pc84416c862)" style="fill: none; stroke: #0000ff; stroke-width: 1.5"/>
    <path d="M 218.926549 156.613783 
L 218.926549 156.038158 
" clip-path="url(#pc84416c862)" style="fill: none; stroke: #0000ff; stroke-width: 1.5"/>
    <path d="M 231.409425 164.127407 
L 231.409425 163.507575 
" clip-path="url(#pc84416c862)" style="fill: none; stroke: #0000ff; stroke-width: 1.5"/>
    <path d="M 242.222585 170.081017 
L 242.222585 169.75053 
" clip-path="url(#pc84416c862)" style="fill: none; stroke: #0000ff; stroke-width: 1.5"/>
    <path d="M 251.760467 175.032528 
L 251.760467 174.863712 
" clip-path="url(#pc84416c862)" style="fill: none; stroke: #0000ff; stroke-width: 1.5"/>
    <path d="M 260.292393 179.322152 
L 260.292393 178.968471 
" clip-path="url(#pc84416c862)" style="fill: none; stroke: #0000ff; stroke-width: 1.5"/>
    <path d="M 268.084043 182.858333 
L 268.084043 182.56004 
" clip-path="url(#pc84416c862)" style="fill: none; stroke: #0000ff; stroke-width: 1.5"/>
    <path d="M 274.988992 185.833889 
L 274.988992 185.451991 
" clip-path="url(#pc84416c862)" style="fill: none; stroke: #0000ff; stroke-width: 1.5"/>
    <path d="M 281.662719 188.435472 
L 281.662719 188.110013 
" clip-path="url(#pc84416c862)" style="fill: none; stroke: #0000ff; stroke-width: 1.5"/>
    <path d="M 298.403133 194.043591 
L 298.403133 193.902575 
" clip-path="url(#pc84416c862)" style="fill: none; stroke: #0000ff; stroke-width: 1.5"/>
    <path d="M 312.311306 197.812996 
L 312.311306 197.717456 
" clip-path="url(#pc84416c862)" style="fill: none; stroke: #0000ff; stroke-width: 1.5"/>
    <path d="M 324.103595 200.466469 
L 324.103595 200.264597 
" clip-path="url(#pc84416c862)" style="fill: none; stroke: #0000ff; stroke-width: 1.5"/>
    <path d="M 334.492154 202.313697 
L 334.492154 202.167489 
" clip-path="url(#pc84416c862)" style="fill: none; stroke: #0000ff; stroke-width: 1.5"/>
    <path d="M 361.808519 205.704363 
L 361.808519 205.644798 
" clip-path="url(#pc84416c862)" style="fill: none; stroke: #0000ff; stroke-width: 1.5"/>
    <path d="M 382.072183 207.678607 
L 382.072183 207.642119 
" clip-path="url(#pc84416c862)" style="fill: none; stroke: #0000ff; stroke-width: 1.5"/>
    <path d="M 398.487273 208.026497 
L 398.487273 207.998928 
" clip-path="url(#pc84416c862)" style="fill: none; stroke: #0000ff; stroke-width: 1.5"/>
   </g>
   <g id="line2d_32">
    <defs>
     <path id="m8a6c0231fc" d="M 3 0 
L -3 -0 
" style="stroke: #0000ff"/>
    </defs>
    <g clip-path="url(#pc84416c862)">
     <use xlink:href="#m8a6c0231fc" x="73.832727" y="54.119608" style="fill: #0000ff; stroke: #0000ff"/>
     <use xlink:href="#m8a6c0231fc" x="129.96268" y="95.221653" style="fill: #0000ff; stroke: #0000ff"/>
     <use xlink:href="#m8a6c0231fc" x="162.796597" y="118.813833" style="fill: #0000ff; stroke: #0000ff"/>
     <use xlink:href="#m8a6c0231fc" x="186.092632" y="135.080811" style="fill: #0000ff; stroke: #0000ff"/>
     <use xlink:href="#m8a6c0231fc" x="204.162441" y="146.974245" style="fill: #0000ff; stroke: #0000ff"/>
     <use xlink:href="#m8a6c0231fc" x="218.926549" y="156.613783" style="fill: #0000ff; stroke: #0000ff"/>
     <use xlink:href="#m8a6c0231fc" x="231.409425" y="164.127407" style="fill: #0000ff; stroke: #0000ff"/>
     <use xlink:href="#m8a6c0231fc" x="242.222585" y="170.081017" style="fill: #0000ff; stroke: #0000ff"/>
     <use xlink:href="#m8a6c0231fc" x="251.760467" y="175.032528" style="fill: #0000ff; stroke: #0000ff"/>
     <use xlink:href="#m8a6c0231fc" x="260.292393" y="179.322152" style="fill: #0000ff; stroke: #0000ff"/>
     <use xlink:href="#m8a6c0231fc" x="268.084043" y="182.858333" style="fill: #0000ff; stroke: #0000ff"/>
     <use xlink:href="#m8a6c0231fc" x="274.988992" y="185.833889" style="fill: #0000ff; stroke: #0000ff"/>
     <use xlink:href="#m8a6c0231fc" x="281.662719" y="188.435472" style="fill: #0000ff; stroke: #0000ff"/>
     <use xlink:href="#m8a6c0231fc" x="298.403133" y="194.043591" style="fill: #0000ff; stroke: #0000ff"/>
     <use xlink:href="#m8a6c0231fc" x="312.311306" y="197.812996" style="fill: #0000ff; stroke: #0000ff"/>
     <use xlink:href="#m8a6c0231fc" x="324.103595" y="200.466469" style="fill: #0000ff; stroke: #0000ff"/>
     <use xlink:href="#m8a6c0231fc" x="334.492154" y="202.313697" style="fill: #0000ff; stroke: #0000ff"/>
     <use xlink:href="#m8a6c0231fc" x="361.808519" y="205.704363" style="fill: #0000ff; stroke: #0000ff"/>
     <use xlink:href="#m8a6c0231fc" x="382.072183" y="207.678607" style="fill: #0000ff; stroke: #0000ff"/>
     <use xlink:href="#m8a6c0231fc" x="398.487273" y="208.026497" style="fill: #0000ff; stroke: #0000ff"/>
    </g>
   </g>
   <g id="line2d_33">
    <g clip-path="url(#pc84416c862)">
     <use xlink:href="#m8a6c0231fc" x="73.832727" y="53.568" style="fill: #0000ff; stroke: #0000ff"/>
     <use xlink:href="#m8a6c0231fc" x="129.96268" y="94.950448" style="fill: #0000ff; stroke: #0000ff"/>
     <use xlink:href="#m8a6c0231fc" x="162.796597" y="118.549962" style="fill: #0000ff; stroke: #0000ff"/>
     <use xlink:href="#m8a6c0231fc" x="186.092632" y="134.699442" style="fill: #0000ff; stroke: #0000ff"/>
     <use xlink:href="#m8a6c0231fc" x="204.162441" y="146.925673" style="fill: #0000ff; stroke: #0000ff"/>
     <use xlink:href="#m8a6c0231fc" x="218.926549" y="156.038158" style="fill: #0000ff; stroke: #0000ff"/>
     <use xlink:href="#m8a6c0231fc" x="231.409425" y="163.507575" style="fill: #0000ff; stroke: #0000ff"/>
     <use xlink:href="#m8a6c0231fc" x="242.222585" y="169.75053" style="fill: #0000ff; stroke: #0000ff"/>
     <use xlink:href="#m8a6c0231fc" x="251.760467" y="174.863712" style="fill: #0000ff; stroke: #0000ff"/>
     <use xlink:href="#m8a6c0231fc" x="260.292393" y="178.968471" style="fill: #0000ff; stroke: #0000ff"/>
     <use xlink:href="#m8a6c0231fc" x="268.084043" y="182.56004" style="fill: #0000ff; stroke: #0000ff"/>
     <use xlink:href="#m8a6c0231fc" x="274.988992" y="185.451991" style="fill: #0000ff; stroke: #0000ff"/>
     <use xlink:href="#m8a6c0231fc" x="281.662719" y="188.110013" style="fill: #0000ff; stroke: #0000ff"/>
     <use xlink:href="#m8a6c0231fc" x="298.403133" y="193.902575" style="fill: #0000ff; stroke: #0000ff"/>
     <use xlink:href="#m8a6c0231fc" x="312.311306" y="197.717456" style="fill: #0000ff; stroke: #0000ff"/>
     <use xlink:href="#m8a6c0231fc" x="324.103595" y="200.264597" style="fill: #0000ff; stroke: #0000ff"/>
     <use xlink:href="#m8a6c0231fc" x="334.492154" y="202.167489" style="fill: #0000ff; stroke: #0000ff"/>
     <use xlink:href="#m8a6c0231fc" x="361.808519" y="205.644798" style="fill: #0000ff; stroke: #0000ff"/>
     <use xlink:href="#m8a6c0231fc" x="382.072183" y="207.642119" style="fill: #0000ff; stroke: #0000ff"/>
     <use xlink:href="#m8a6c0231fc" x="398.487273" y="207.998928" style="fill: #0000ff; stroke: #0000ff"/>
    </g>
   </g>
   <g id="line2d_34">
    <path d="M 73.832727 53.843804 
L 116.99266 85.623222 
L 144.996537 105.968455 
L 165.765037 120.778484 
L 182.279569 132.28054 
L 195.98998 141.564255 
L 207.711731 149.248482 
L 218.685715 156.177199 
L 228.348464 162.022359 
L 237.562869 167.336225 
L 245.83508 171.862131 
L 253.816472 175.986761 
L 261.514419 179.721625 
L 268.938776 183.083936 
L 276.460769 186.240394 
L 283.672281 189.024626 
L 290.897032 191.574801 
L 298.081548 193.875509 
L 305.437158 195.993921 
L 312.870137 197.900678 
L 320.515989 199.630326 
L 328.452341 201.194907 
L 336.710406 202.595299 
L 345.438951 203.849742 
L 354.832567 204.972882 
L 365.072904 205.968477 
L 376.283897 206.831462 
L 388.954024 207.578008 
L 398.487273 208.012713 
L 398.487273 208.012713 
" clip-path="url(#pc84416c862)" style="fill: none; stroke: #ff00ff; stroke-width: 1.5; stroke-linecap: square"/>
   </g>
   <g id="line2d_35">
    <path d="M 57.6 209.7089 
L 414.72 209.7089 
" clip-path="url(#pc84416c862)" style="fill: none; stroke: #ff0000; stroke-width: 1.5; stroke-linecap: square"/>
   </g>
   <g id="line2d_36">
    <path d="M 73.832727 54.014522 
L 398.487273 295.488 
L 398.487273 295.488 
" clip-path="url(#pc84416c862)" style="fill: none; stroke: #00ff7f; stroke-width: 1.5; stroke-linecap: square"/>
   </g>
   <g id="line2d_37">
    <defs>
     <path id="m4d6a9af9e1" d="M 0 3 
C 0.795609 3 1.55874 2.683901 2.12132 2.12132 
C 2.683901 1.55874 3 0.795609 3 0 
C 3 -0.795609 2.683901 -1.55874 2.12132 -2.12132 
C 1.55874 -2.683901 0.795609 -3 0 -3 
C -0.795609 -3 -1.55874 -2.683901 -2.12132 -2.12132 
C -2.683901 -1.55874 -3 -0.795609 -3 0 
C -3 0.795609 -2.683901 1.55874 -2.12132 2.12132 
C -1.55874 2.683901 -0.795609 3 0 3 
z
" style="stroke: #0000ff"/>
    </defs>
    <g clip-path="url(#pc84416c862)">
     <use xlink:href="#m4d6a9af9e1" x="73.832727" y="53.843804" style="fill: #0000ff; stroke: #0000ff"/>
     <use xlink:href="#m4d6a9af9e1" x="129.96268" y="95.086051" style="fill: #0000ff; stroke: #0000ff"/>
     <use xlink:href="#m4d6a9af9e1" x="162.796597" y="118.681897" style="fill: #0000ff; stroke: #0000ff"/>
     <use xlink:href="#m4d6a9af9e1" x="186.092632" y="134.890127" style="fill: #0000ff; stroke: #0000ff"/>
     <use xlink:href="#m4d6a9af9e1" x="204.162441" y="146.949959" style="fill: #0000ff; stroke: #0000ff"/>
     <use xlink:href="#m4d6a9af9e1" x="218.926549" y="156.325971" style="fill: #0000ff; stroke: #0000ff"/>
     <use xlink:href="#m4d6a9af9e1" x="231.409425" y="163.817491" style="fill: #0000ff; stroke: #0000ff"/>
     <use xlink:href="#m4d6a9af9e1" x="242.222585" y="169.915773" style="fill: #0000ff; stroke: #0000ff"/>
     <use xlink:href="#m4d6a9af9e1" x="251.760467" y="174.94812" style="fill: #0000ff; stroke: #0000ff"/>
     <use xlink:href="#m4d6a9af9e1" x="260.292393" y="179.145312" style="fill: #0000ff; stroke: #0000ff"/>
     <use xlink:href="#m4d6a9af9e1" x="268.084043" y="182.709187" style="fill: #0000ff; stroke: #0000ff"/>
     <use xlink:href="#m4d6a9af9e1" x="274.988992" y="185.64294" style="fill: #0000ff; stroke: #0000ff"/>
     <use xlink:href="#m4d6a9af9e1" x="281.662719" y="188.272743" style="fill: #0000ff; stroke: #0000ff"/>
     <use xlink:href="#m4d6a9af9e1" x="298.403133" y="193.973083" style="fill: #0000ff; stroke: #0000ff"/>
     <use xlink:href="#m4d6a9af9e1" x="312.311306" y="197.765226" style="fill: #0000ff; stroke: #0000ff"/>
     <use xlink:href="#m4d6a9af9e1" x="324.103595" y="200.365533" style="fill: #0000ff; stroke: #0000ff"/>
     <use xlink:href="#m4d6a9af9e1" x="334.492154" y="202.240593" style="fill: #0000ff; stroke: #0000ff"/>
     <use xlink:href="#m4d6a9af9e1" x="361.808519" y="205.67458" style="fill: #0000ff; stroke: #0000ff"/>
     <use xlink:href="#m4d6a9af9e1" x="382.072183" y="207.660363" style="fill: #0000ff; stroke: #0000ff"/>
     <use xlink:href="#m4d6a9af9e1" x="398.487273" y="208.012713" style="fill: #0000ff; stroke: #0000ff"/>
    </g>
   </g>
   <g id="patch_3">
    <path d="M 57.6 307.584 
L 57.6 41.472 
" style="fill: none; stroke: #000000; stroke-width: 0.8; stroke-linejoin: miter; stroke-linecap: square"/>
   </g>
   <g id="patch_4">
    <path d="M 414.72 307.584 
L 414.72 41.472 
" style="fill: none; stroke: #000000; stroke-width: 0.8; stroke-linejoin: miter; stroke-linecap: square"/>
   </g>
   <g id="patch_5">
    <path d="M 57.6 307.584 
L 414.72 307.584 
" style="fill: none; stroke: #000000; stroke-width: 0.8; stroke-linejoin: miter; stroke-linecap: square"/>
   </g>
   <g id="patch_6">
    <path d="M 57.6 41.472 
L 414.72 41.472 
" style="fill: none; stroke: #000000; stroke-width: 0.8; stroke-linejoin: miter; stroke-linecap: square"/>
   </g>
   <g id="text_18">
    <!-- Curvas de la impedancia $Z$ frente a la frecuencia $\log f$ -->
    <g transform="translate(75.36 35.472) scale(0.12 -0.12)">
     <defs>
      <path id="DejaVuSans-43" d="M 4122 4306 
L 4122 3641 
Q 3803 3938 3442 4084 
Q 3081 4231 2675 4231 
Q 1875 4231 1450 3742 
Q 1025 3253 1025 2328 
Q 1025 1406 1450 917 
Q 1875 428 2675 428 
Q 3081 428 3442 575 
Q 3803 722 4122 1019 
L 4122 359 
Q 3791 134 3420 21 
Q 3050 -91 2638 -91 
Q 1578 -91 968 557 
Q 359 1206 359 2328 
Q 359 3453 968 4101 
Q 1578 4750 2638 4750 
Q 3056 4750 3426 4639 
Q 3797 4528 4122 4306 
z
" transform="scale(0.015625)"/>
      <path id="DejaVuSans-75" d="M 544 1381 
L 544 3500 
L 1119 3500 
L 1119 1403 
Q 1119 906 1312 657 
Q 1506 409 1894 409 
Q 2359 409 2629 706 
Q 2900 1003 2900 1516 
L 2900 3500 
L 3475 3500 
L 3475 0 
L 2900 0 
L 2900 538 
Q 2691 219 2414 64 
Q 2138 -91 1772 -91 
Q 1169 -91 856 284 
Q 544 659 544 1381 
z
M 1991 3584 
L 1991 3584 
z
" transform="scale(0.015625)"/>
      <path id="DejaVuSans-72" d="M 2631 2963 
Q 2534 3019 2420 3045 
Q 2306 3072 2169 3072 
Q 1681 3072 1420 2755 
Q 1159 2438 1159 1844 
L 1159 0 
L 581 0 
L 581 3500 
L 1159 3500 
L 1159 2956 
Q 1341 3275 1631 3429 
Q 1922 3584 2338 3584 
Q 2397 3584 2469 3576 
Q 2541 3569 2628 3553 
L 2631 2963 
z
" transform="scale(0.015625)"/>
      <path id="DejaVuSans-76" d="M 191 3500 
L 800 3500 
L 1894 563 
L 2988 3500 
L 3597 3500 
L 2284 0 
L 1503 0 
L 191 3500 
z
" transform="scale(0.015625)"/>
      <path id="DejaVuSans-61" d="M 2194 1759 
Q 1497 1759 1228 1600 
Q 959 1441 959 1056 
Q 959 750 1161 570 
Q 1363 391 1709 391 
Q 2188 391 2477 730 
Q 2766 1069 2766 1631 
L 2766 1759 
L 2194 1759 
z
M 3341 1997 
L 3341 0 
L 2766 0 
L 2766 531 
Q 2569 213 2275 61 
Q 1981 -91 1556 -91 
Q 1019 -91 701 211 
Q 384 513 384 1019 
Q 384 1609 779 1909 
Q 1175 2209 1959 2209 
L 2766 2209 
L 2766 2266 
Q 2766 2663 2505 2880 
Q 2244 3097 1772 3097 
Q 1472 3097 1187 3025 
Q 903 2953 641 2809 
L 641 3341 
Q 956 3463 1253 3523 
Q 1550 3584 1831 3584 
Q 2591 3584 2966 3190 
Q 3341 2797 3341 1997 
z
" transform="scale(0.015625)"/>
      <path id="DejaVuSans-73" d="M 2834 3397 
L 2834 2853 
Q 2591 2978 2328 3040 
Q 2066 3103 1784 3103 
Q 1356 3103 1142 2972 
Q 928 2841 928 2578 
Q 928 2378 1081 2264 
Q 1234 2150 1697 2047 
L 1894 2003 
Q 2506 1872 2764 1633 
Q 3022 1394 3022 966 
Q 3022 478 2636 193 
Q 2250 -91 1575 -91 
Q 1294 -91 989 -36 
Q 684 19 347 128 
L 347 722 
Q 666 556 975 473 
Q 1284 391 1588 391 
Q 1994 391 2212 530 
Q 2431 669 2431 922 
Q 2431 1156 2273 1281 
Q 2116 1406 1581 1522 
L 1381 1569 
Q 847 1681 609 1914 
Q 372 2147 372 2553 
Q 372 3047 722 3315 
Q 1072 3584 1716 3584 
Q 2034 3584 2315 3537 
Q 2597 3491 2834 3397 
z
" transform="scale(0.015625)"/>
      <path id="DejaVuSans-20" transform="scale(0.015625)"/>
      <path id="DejaVuSans-64" d="M 2906 2969 
L 2906 4863 
L 3481 4863 
L 3481 0 
L 2906 0 
L 2906 525 
Q 2725 213 2448 61 
Q 2172 -91 1784 -91 
Q 1150 -91 751 415 
Q 353 922 353 1747 
Q 353 2572 751 3078 
Q 1150 3584 1784 3584 
Q 2172 3584 2448 3432 
Q 2725 3281 2906 2969 
z
M 947 1747 
Q 947 1113 1208 752 
Q 1469 391 1925 391 
Q 2381 391 2643 752 
Q 2906 1113 2906 1747 
Q 2906 2381 2643 2742 
Q 2381 3103 1925 3103 
Q 1469 3103 1208 2742 
Q 947 2381 947 1747 
z
" transform="scale(0.015625)"/>
      <path id="DejaVuSans-65" d="M 3597 1894 
L 3597 1613 
L 953 1613 
Q 991 1019 1311 708 
Q 1631 397 2203 397 
Q 2534 397 2845 478 
Q 3156 559 3463 722 
L 3463 178 
Q 3153 47 2828 -22 
Q 2503 -91 2169 -91 
Q 1331 -91 842 396 
Q 353 884 353 1716 
Q 353 2575 817 3079 
Q 1281 3584 2069 3584 
Q 2775 3584 3186 3129 
Q 3597 2675 3597 1894 
z
M 3022 2063 
Q 3016 2534 2758 2815 
Q 2500 3097 2075 3097 
Q 1594 3097 1305 2825 
Q 1016 2553 972 2059 
L 3022 2063 
z
" transform="scale(0.015625)"/>
      <path id="DejaVuSans-69" d="M 603 3500 
L 1178 3500 
L 1178 0 
L 603 0 
L 603 3500 
z
M 603 4863 
L 1178 4863 
L 1178 4134 
L 603 4134 
L 603 4863 
z
" transform="scale(0.015625)"/>
      <path id="DejaVuSans-6d" d="M 3328 2828 
Q 3544 3216 3844 3400 
Q 4144 3584 4550 3584 
Q 5097 3584 5394 3201 
Q 5691 2819 5691 2113 
L 5691 0 
L 5113 0 
L 5113 2094 
Q 5113 2597 4934 2840 
Q 4756 3084 4391 3084 
Q 3944 3084 3684 2787 
Q 3425 2491 3425 1978 
L 3425 0 
L 2847 0 
L 2847 2094 
Q 2847 2600 2669 2842 
Q 2491 3084 2119 3084 
Q 1678 3084 1418 2786 
Q 1159 2488 1159 1978 
L 1159 0 
L 581 0 
L 581 3500 
L 1159 3500 
L 1159 2956 
Q 1356 3278 1631 3431 
Q 1906 3584 2284 3584 
Q 2666 3584 2933 3390 
Q 3200 3197 3328 2828 
z
" transform="scale(0.015625)"/>
      <path id="DejaVuSans-70" d="M 1159 525 
L 1159 -1331 
L 581 -1331 
L 581 3500 
L 1159 3500 
L 1159 2969 
Q 1341 3281 1617 3432 
Q 1894 3584 2278 3584 
Q 2916 3584 3314 3078 
Q 3713 2572 3713 1747 
Q 3713 922 3314 415 
Q 2916 -91 2278 -91 
Q 1894 -91 1617 61 
Q 1341 213 1159 525 
z
M 3116 1747 
Q 3116 2381 2855 2742 
Q 2594 3103 2138 3103 
Q 1681 3103 1420 2742 
Q 1159 2381 1159 1747 
Q 1159 1113 1420 752 
Q 1681 391 2138 391 
Q 2594 391 2855 752 
Q 3116 1113 3116 1747 
z
" transform="scale(0.015625)"/>
      <path id="DejaVuSans-6e" d="M 3513 2113 
L 3513 0 
L 2938 0 
L 2938 2094 
Q 2938 2591 2744 2837 
Q 2550 3084 2163 3084 
Q 1697 3084 1428 2787 
Q 1159 2491 1159 1978 
L 1159 0 
L 581 0 
L 581 3500 
L 1159 3500 
L 1159 2956 
Q 1366 3272 1645 3428 
Q 1925 3584 2291 3584 
Q 2894 3584 3203 3211 
Q 3513 2838 3513 2113 
z
" transform="scale(0.015625)"/>
      <path id="DejaVuSans-63" d="M 3122 3366 
L 3122 2828 
Q 2878 2963 2633 3030 
Q 2388 3097 2138 3097 
Q 1578 3097 1268 2742 
Q 959 2388 959 1747 
Q 959 1106 1268 751 
Q 1578 397 2138 397 
Q 2388 397 2633 464 
Q 2878 531 3122 666 
L 3122 134 
Q 2881 22 2623 -34 
Q 2366 -91 2075 -91 
Q 1284 -91 818 406 
Q 353 903 353 1747 
Q 353 2603 823 3093 
Q 1294 3584 2113 3584 
Q 2378 3584 2631 3529 
Q 2884 3475 3122 3366 
z
" transform="scale(0.015625)"/>
      <path id="DejaVuSans-66" d="M 2375 4863 
L 2375 4384 
L 1825 4384 
Q 1516 4384 1395 4259 
Q 1275 4134 1275 3809 
L 1275 3500 
L 2222 3500 
L 2222 3053 
L 1275 3053 
L 1275 0 
L 697 0 
L 697 3053 
L 147 3053 
L 147 3500 
L 697 3500 
L 697 3744 
Q 697 4328 969 4595 
Q 1241 4863 1831 4863 
L 2375 4863 
z
" transform="scale(0.015625)"/>
      <path id="DejaVuSans-74" d="M 1172 4494 
L 1172 3500 
L 2356 3500 
L 2356 3053 
L 1172 3053 
L 1172 1153 
Q 1172 725 1289 603 
Q 1406 481 1766 481 
L 2356 481 
L 2356 0 
L 1766 0 
Q 1100 0 847 248 
Q 594 497 594 1153 
L 594 3053 
L 172 3053 
L 172 3500 
L 594 3500 
L 594 4494 
L 1172 4494 
z
" transform="scale(0.015625)"/>
     </defs>
     <use xlink:href="#DejaVuSans-43" transform="translate(0 0.015625)"/>
     <use xlink:href="#DejaVuSans-75" transform="translate(69.824219 0.015625)"/>
     <use xlink:href="#DejaVuSans-72" transform="translate(133.203125 0.015625)"/>
     <use xlink:href="#DejaVuSans-76" transform="translate(174.316406 0.015625)"/>
     <use xlink:href="#DejaVuSans-61" transform="translate(233.496094 0.015625)"/>
     <use xlink:href="#DejaVuSans-73" transform="translate(294.775391 0.015625)"/>
     <use xlink:href="#DejaVuSans-20" transform="translate(346.875 0.015625)"/>
     <use xlink:href="#DejaVuSans-64" transform="translate(378.662109 0.015625)"/>
     <use xlink:href="#DejaVuSans-65" transform="translate(442.138672 0.015625)"/>
     <use xlink:href="#DejaVuSans-20" transform="translate(503.662109 0.015625)"/>
     <use xlink:href="#DejaVuSans-6c" transform="translate(535.449219 0.015625)"/>
     <use xlink:href="#DejaVuSans-61" transform="translate(563.232422 0.015625)"/>
     <use xlink:href="#DejaVuSans-20" transform="translate(624.511719 0.015625)"/>
     <use xlink:href="#DejaVuSans-69" transform="translate(656.298828 0.015625)"/>
     <use xlink:href="#DejaVuSans-6d" transform="translate(684.082031 0.015625)"/>
     <use xlink:href="#DejaVuSans-70" transform="translate(781.494141 0.015625)"/>
     <use xlink:href="#DejaVuSans-65" transform="translate(844.970703 0.015625)"/>
     <use xlink:href="#DejaVuSans-64" transform="translate(906.494141 0.015625)"/>
     <use xlink:href="#DejaVuSans-61" transform="translate(969.970703 0.015625)"/>
     <use xlink:href="#DejaVuSans-6e" transform="translate(1031.25 0.015625)"/>
     <use xlink:href="#DejaVuSans-63" transform="translate(1094.628906 0.015625)"/>
     <use xlink:href="#DejaVuSans-69" transform="translate(1149.609375 0.015625)"/>
     <use xlink:href="#DejaVuSans-61" transform="translate(1177.392578 0.015625)"/>
     <use xlink:href="#DejaVuSans-20" transform="translate(1238.671875 0.015625)"/>
     <use xlink:href="#DejaVuSans-Oblique-5a" transform="translate(1270.458984 0.015625)"/>
     <use xlink:href="#DejaVuSans-20" transform="translate(1338.964844 0.015625)"/>
     <use xlink:href="#DejaVuSans-66" transform="translate(1370.751953 0.015625)"/>
     <use xlink:href="#DejaVuSans-72" transform="translate(1405.957031 0.015625)"/>
     <use xlink:href="#DejaVuSans-65" transform="translate(1447.070312 0.015625)"/>
     <use xlink:href="#DejaVuSans-6e" transform="translate(1508.59375 0.015625)"/>
     <use xlink:href="#DejaVuSans-74" transform="translate(1571.972656 0.015625)"/>
     <use xlink:href="#DejaVuSans-65" transform="translate(1611.181641 0.015625)"/>
     <use xlink:href="#DejaVuSans-20" transform="translate(1672.705078 0.015625)"/>
     <use xlink:href="#DejaVuSans-61" transform="translate(1704.492188 0.015625)"/>
     <use xlink:href="#DejaVuSans-20" transform="translate(1765.771484 0.015625)"/>
     <use xlink:href="#DejaVuSans-6c" transform="translate(1797.558594 0.015625)"/>
     <use xlink:href="#DejaVuSans-61" transform="translate(1825.341797 0.015625)"/>
     <use xlink:href="#DejaVuSans-20" transform="translate(1886.621094 0.015625)"/>
     <use xlink:href="#DejaVuSans-66" transform="translate(1918.408203 0.015625)"/>
     <use xlink:href="#DejaVuSans-72" transform="translate(1953.613281 0.015625)"/>
     <use xlink:href="#DejaVuSans-65" transform="translate(1994.726562 0.015625)"/>
     <use xlink:href="#DejaVuSans-63" transform="translate(2056.25 0.015625)"/>
     <use xlink:href="#DejaVuSans-75" transform="translate(2111.230469 0.015625)"/>
     <use xlink:href="#DejaVuSans-65" transform="translate(2174.609375 0.015625)"/>
     <use xlink:href="#DejaVuSans-6e" transform="translate(2236.132812 0.015625)"/>
     <use xlink:href="#DejaVuSans-63" transform="translate(2299.511719 0.015625)"/>
     <use xlink:href="#DejaVuSans-69" transform="translate(2354.492188 0.015625)"/>
     <use xlink:href="#DejaVuSans-61" transform="translate(2382.275391 0.015625)"/>
     <use xlink:href="#DejaVuSans-20" transform="translate(2443.554688 0.015625)"/>
     <use xlink:href="#DejaVuSans-6c" transform="translate(2475.341797 0.015625)"/>
     <use xlink:href="#DejaVuSans-6f" transform="translate(2503.125 0.015625)"/>
     <use xlink:href="#DejaVuSans-67" transform="translate(2564.306641 0.015625)"/>
     <use xlink:href="#DejaVuSans-Oblique-66" transform="translate(2644.018879 0.015625)"/>
    </g>
   </g>
   <g id="legend_1">
    <g id="patch_7">
     <path d="M 253.22 152.64075 
L 407.72 152.64075 
Q 409.72 152.64075 409.72 150.64075 
L 409.72 48.472 
Q 409.72 46.472 407.72 46.472 
L 253.22 46.472 
Q 251.22 46.472 251.22 48.472 
L 251.22 150.64075 
Q 251.22 152.64075 253.22 152.64075 
z
" style="fill: #ffffff; opacity: 0.8; stroke: #cccccc; stroke-linejoin: miter"/>
    </g>
    <g id="PathCollection_3">
     <g>
      <use xlink:href="#m2e31e1fa83" x="265.22" y="55.445438" style="fill: #ffd700; stroke: #ffd700"/>
     </g>
    </g>
    <g id="text_19">
     <!-- Pto de corte de R y C -->
     <g transform="translate(283.22 58.070438) scale(0.1 -0.1)">
      <defs>
       <path id="DejaVuSans-50" d="M 1259 4147 
L 1259 2394 
L 2053 2394 
Q 2494 2394 2734 2622 
Q 2975 2850 2975 3272 
Q 2975 3691 2734 3919 
Q 2494 4147 2053 4147 
L 1259 4147 
z
M 628 4666 
L 2053 4666 
Q 2838 4666 3239 4311 
Q 3641 3956 3641 3272 
Q 3641 2581 3239 2228 
Q 2838 1875 2053 1875 
L 1259 1875 
L 1259 0 
L 628 0 
L 628 4666 
z
" transform="scale(0.015625)"/>
       <path id="DejaVuSans-52" d="M 2841 2188 
Q 3044 2119 3236 1894 
Q 3428 1669 3622 1275 
L 4263 0 
L 3584 0 
L 2988 1197 
Q 2756 1666 2539 1819 
Q 2322 1972 1947 1972 
L 1259 1972 
L 1259 0 
L 628 0 
L 628 4666 
L 2053 4666 
Q 2853 4666 3247 4331 
Q 3641 3997 3641 3322 
Q 3641 2881 3436 2590 
Q 3231 2300 2841 2188 
z
M 1259 4147 
L 1259 2491 
L 2053 2491 
Q 2509 2491 2742 2702 
Q 2975 2913 2975 3322 
Q 2975 3731 2742 3939 
Q 2509 4147 2053 4147 
L 1259 4147 
z
" transform="scale(0.015625)"/>
       <path id="DejaVuSans-79" d="M 2059 -325 
Q 1816 -950 1584 -1140 
Q 1353 -1331 966 -1331 
L 506 -1331 
L 506 -850 
L 844 -850 
Q 1081 -850 1212 -737 
Q 1344 -625 1503 -206 
L 1606 56 
L 191 3500 
L 800 3500 
L 1894 763 
L 2988 3500 
L 3597 3500 
L 2059 -325 
z
" transform="scale(0.015625)"/>
      </defs>
      <use xlink:href="#DejaVuSans-50"/>
      <use xlink:href="#DejaVuSans-74" transform="translate(60.302734 0)"/>
      <use xlink:href="#DejaVuSans-6f" transform="translate(99.511719 0)"/>
      <use xlink:href="#DejaVuSans-20" transform="translate(160.693359 0)"/>
      <use xlink:href="#DejaVuSans-64" transform="translate(192.480469 0)"/>
      <use xlink:href="#DejaVuSans-65" transform="translate(255.957031 0)"/>
      <use xlink:href="#DejaVuSans-20" transform="translate(317.480469 0)"/>
      <use xlink:href="#DejaVuSans-63" transform="translate(349.267578 0)"/>
      <use xlink:href="#DejaVuSans-6f" transform="translate(404.248047 0)"/>
      <use xlink:href="#DejaVuSans-72" transform="translate(465.429688 0)"/>
      <use xlink:href="#DejaVuSans-74" transform="translate(506.542969 0)"/>
      <use xlink:href="#DejaVuSans-65" transform="translate(545.751953 0)"/>
      <use xlink:href="#DejaVuSans-20" transform="translate(607.275391 0)"/>
      <use xlink:href="#DejaVuSans-64" transform="translate(639.0625 0)"/>
      <use xlink:href="#DejaVuSans-65" transform="translate(702.539062 0)"/>
      <use xlink:href="#DejaVuSans-20" transform="translate(764.0625 0)"/>
      <use xlink:href="#DejaVuSans-52" transform="translate(795.849609 0)"/>
      <use xlink:href="#DejaVuSans-20" transform="translate(865.332031 0)"/>
      <use xlink:href="#DejaVuSans-79" transform="translate(897.119141 0)"/>
      <use xlink:href="#DejaVuSans-20" transform="translate(956.298828 0)"/>
      <use xlink:href="#DejaVuSans-43" transform="translate(988.085938 0)"/>
     </g>
    </g>
    <g id="PathCollection_4">
     <g>
      <use xlink:href="#m2b6e92d4ad" x="265.22" y="70.525125" style="fill: #00ffff; stroke: #00ffff"/>
     </g>
    </g>
    <g id="text_20">
     <!-- Impedancia teórica en $f_c$ -->
     <g transform="translate(283.22 73.150125) scale(0.1 -0.1)">
      <defs>
       <path id="DejaVuSans-49" d="M 628 4666 
L 1259 4666 
L 1259 0 
L 628 0 
L 628 4666 
z
" transform="scale(0.015625)"/>
       <path id="DejaVuSans-f3" d="M 1959 3097 
Q 1497 3097 1228 2736 
Q 959 2375 959 1747 
Q 959 1119 1226 758 
Q 1494 397 1959 397 
Q 2419 397 2687 759 
Q 2956 1122 2956 1747 
Q 2956 2369 2687 2733 
Q 2419 3097 1959 3097 
z
M 1959 3584 
Q 2709 3584 3137 3096 
Q 3566 2609 3566 1747 
Q 3566 888 3137 398 
Q 2709 -91 1959 -91 
Q 1206 -91 779 398 
Q 353 888 353 1747 
Q 353 2609 779 3096 
Q 1206 3584 1959 3584 
z
M 2394 5119 
L 3016 5119 
L 1998 3944 
L 1519 3944 
L 2394 5119 
z
" transform="scale(0.015625)"/>
       <path id="DejaVuSans-Oblique-63" d="M 3431 3366 
L 3316 2797 
Q 3109 2947 2876 3022 
Q 2644 3097 2394 3097 
Q 2119 3097 1870 3000 
Q 1622 2903 1453 2725 
Q 1184 2453 1037 2087 
Q 891 1722 891 1331 
Q 891 859 1127 628 
Q 1363 397 1844 397 
Q 2081 397 2348 469 
Q 2616 541 2906 684 
L 2797 116 
Q 2547 13 2283 -39 
Q 2019 -91 1741 -91 
Q 1044 -91 669 257 
Q 294 606 294 1253 
Q 294 1797 489 2255 
Q 684 2713 1069 3078 
Q 1331 3328 1684 3456 
Q 2038 3584 2456 3584 
Q 2700 3584 2940 3529 
Q 3181 3475 3431 3366 
z
" transform="scale(0.015625)"/>
      </defs>
      <use xlink:href="#DejaVuSans-49" transform="translate(0 0.015625)"/>
      <use xlink:href="#DejaVuSans-6d" transform="translate(25.867188 0.015625)"/>
      <use xlink:href="#DejaVuSans-70" transform="translate(123.279297 0.015625)"/>
      <use xlink:href="#DejaVuSans-65" transform="translate(186.755859 0.015625)"/>
      <use xlink:href="#DejaVuSans-64" transform="translate(248.279297 0.015625)"/>
      <use xlink:href="#DejaVuSans-61" transform="translate(311.755859 0.015625)"/>
      <use xlink:href="#DejaVuSans-6e" transform="translate(373.035156 0.015625)"/>
      <use xlink:href="#DejaVuSans-63" transform="translate(436.414062 0.015625)"/>
      <use xlink:href="#DejaVuSans-69" transform="translate(491.394531 0.015625)"/>
      <use xlink:href="#DejaVuSans-61" transform="translate(519.177734 0.015625)"/>
      <use xlink:href="#DejaVuSans-20" transform="translate(580.457031 0.015625)"/>
      <use xlink:href="#DejaVuSans-74" transform="translate(612.244141 0.015625)"/>
      <use xlink:href="#DejaVuSans-65" transform="translate(651.453125 0.015625)"/>
      <use xlink:href="#DejaVuSans-f3" transform="translate(712.976562 0.015625)"/>
      <use xlink:href="#DejaVuSans-72" transform="translate(774.158203 0.015625)"/>
      <use xlink:href="#DejaVuSans-69" transform="translate(815.271484 0.015625)"/>
      <use xlink:href="#DejaVuSans-63" transform="translate(843.054688 0.015625)"/>
      <use xlink:href="#DejaVuSans-61" transform="translate(898.035156 0.015625)"/>
      <use xlink:href="#DejaVuSans-20" transform="translate(959.314453 0.015625)"/>
      <use xlink:href="#DejaVuSans-65" transform="translate(991.101562 0.015625)"/>
      <use xlink:href="#DejaVuSans-6e" transform="translate(1052.625 0.015625)"/>
      <use xlink:href="#DejaVuSans-20" transform="translate(1116.003906 0.015625)"/>
      <use xlink:href="#DejaVuSans-Oblique-66" transform="translate(1147.791016 0.015625)"/>
      <use xlink:href="#DejaVuSans-Oblique-63" transform="translate(1182.996094 -16.390625) scale(0.7)"/>
     </g>
    </g>
    <g id="line2d_38">
     <path d="M 255.22 84.348563 
L 265.22 84.348563 
L 275.22 84.348563 
" style="fill: none; stroke-dasharray: 5.55,2.4; stroke-dashoffset: 0; stroke: #ff8c00; stroke-width: 1.5"/>
    </g>
    <g id="text_21">
     <!-- Frecuencia de corte -->
     <g transform="translate(283.22 87.848563) scale(0.1 -0.1)">
      <defs>
       <path id="DejaVuSans-46" d="M 628 4666 
L 3309 4666 
L 3309 4134 
L 1259 4134 
L 1259 2759 
L 3109 2759 
L 3109 2228 
L 1259 2228 
L 1259 0 
L 628 0 
L 628 4666 
z
" transform="scale(0.015625)"/>
      </defs>
      <use xlink:href="#DejaVuSans-46"/>
      <use xlink:href="#DejaVuSans-72" transform="translate(50.269531 0)"/>
      <use xlink:href="#DejaVuSans-65" transform="translate(89.132812 0)"/>
      <use xlink:href="#DejaVuSans-63" transform="translate(150.65625 0)"/>
      <use xlink:href="#DejaVuSans-75" transform="translate(205.636719 0)"/>
      <use xlink:href="#DejaVuSans-65" transform="translate(269.015625 0)"/>
      <use xlink:href="#DejaVuSans-6e" transform="translate(330.539062 0)"/>
      <use xlink:href="#DejaVuSans-63" transform="translate(393.917969 0)"/>
      <use xlink:href="#DejaVuSans-69" transform="translate(448.898438 0)"/>
      <use xlink:href="#DejaVuSans-61" transform="translate(476.681641 0)"/>
      <use xlink:href="#DejaVuSans-20" transform="translate(537.960938 0)"/>
      <use xlink:href="#DejaVuSans-64" transform="translate(569.748047 0)"/>
      <use xlink:href="#DejaVuSans-65" transform="translate(633.224609 0)"/>
      <use xlink:href="#DejaVuSans-20" transform="translate(694.748047 0)"/>
      <use xlink:href="#DejaVuSans-63" transform="translate(726.535156 0)"/>
      <use xlink:href="#DejaVuSans-6f" transform="translate(781.515625 0)"/>
      <use xlink:href="#DejaVuSans-72" transform="translate(842.697266 0)"/>
      <use xlink:href="#DejaVuSans-74" transform="translate(883.810547 0)"/>
      <use xlink:href="#DejaVuSans-65" transform="translate(923.019531 0)"/>
     </g>
    </g>
    <g id="line2d_39">
     <path d="M 255.22 99.026688 
L 265.22 99.026688 
L 275.22 99.026688 
" style="fill: none; stroke: #ff00ff; stroke-width: 1.5; stroke-linecap: square"/>
    </g>
    <g id="text_22">
     <!-- Curva RC -->
     <g transform="translate(283.22 102.526688) scale(0.1 -0.1)">
      <use xlink:href="#DejaVuSans-43"/>
      <use xlink:href="#DejaVuSans-75" transform="translate(69.824219 0)"/>
      <use xlink:href="#DejaVuSans-72" transform="translate(133.203125 0)"/>
      <use xlink:href="#DejaVuSans-76" transform="translate(174.316406 0)"/>
      <use xlink:href="#DejaVuSans-61" transform="translate(233.496094 0)"/>
      <use xlink:href="#DejaVuSans-20" transform="translate(294.775391 0)"/>
      <use xlink:href="#DejaVuSans-52" transform="translate(326.5625 0)"/>
      <use xlink:href="#DejaVuSans-43" transform="translate(391.044922 0)"/>
     </g>
    </g>
    <g id="line2d_40">
     <path d="M 255.22 113.704813 
L 265.22 113.704813 
L 275.22 113.704813 
" style="fill: none; stroke: #ff0000; stroke-width: 1.5; stroke-linecap: square"/>
    </g>
    <g id="text_23">
     <!-- Curva R -->
     <g transform="translate(283.22 117.204813) scale(0.1 -0.1)">
      <use xlink:href="#DejaVuSans-43"/>
      <use xlink:href="#DejaVuSans-75" transform="translate(69.824219 0)"/>
      <use xlink:href="#DejaVuSans-72" transform="translate(133.203125 0)"/>
      <use xlink:href="#DejaVuSans-76" transform="translate(174.316406 0)"/>
      <use xlink:href="#DejaVuSans-61" transform="translate(233.496094 0)"/>
      <use xlink:href="#DejaVuSans-20" transform="translate(294.775391 0)"/>
      <use xlink:href="#DejaVuSans-52" transform="translate(326.5625 0)"/>
     </g>
    </g>
    <g id="line2d_41">
     <path d="M 255.22 128.382938 
L 265.22 128.382938 
L 275.22 128.382938 
" style="fill: none; stroke: #00ff7f; stroke-width: 1.5; stroke-linecap: square"/>
    </g>
    <g id="text_24">
     <!-- Curva C -->
     <g transform="translate(283.22 131.882938) scale(0.1 -0.1)">
      <use xlink:href="#DejaVuSans-43"/>
      <use xlink:href="#DejaVuSans-75" transform="translate(69.824219 0)"/>
      <use xlink:href="#DejaVuSans-72" transform="translate(133.203125 0)"/>
      <use xlink:href="#DejaVuSans-76" transform="translate(174.316406 0)"/>
      <use xlink:href="#DejaVuSans-61" transform="translate(233.496094 0)"/>
      <use xlink:href="#DejaVuSans-20" transform="translate(294.775391 0)"/>
      <use xlink:href="#DejaVuSans-43" transform="translate(326.5625 0)"/>
     </g>
    </g>
    <g id="LineCollection_2">
     <path d="M 265.22 148.061063 
L 265.22 138.061063 
" style="fill: none; stroke: #0000ff; stroke-width: 1.5"/>
    </g>
    <g id="line2d_42">
     <g>
      <use xlink:href="#m8a6c0231fc" x="265.22" y="148.061063" style="fill: #0000ff; stroke: #0000ff"/>
     </g>
    </g>
    <g id="line2d_43">
     <g>
      <use xlink:href="#m8a6c0231fc" x="265.22" y="138.061063" style="fill: #0000ff; stroke: #0000ff"/>
     </g>
    </g>
    <g id="line2d_44"/>
    <g id="line2d_45">
     <g>
      <use xlink:href="#m4d6a9af9e1" x="265.22" y="143.061063" style="fill: #0000ff; stroke: #0000ff"/>
     </g>
    </g>
    <g id="text_25">
     <!-- datos -->
     <g transform="translate(283.22 146.561063) scale(0.1 -0.1)">
      <use xlink:href="#DejaVuSans-64"/>
      <use xlink:href="#DejaVuSans-61" transform="translate(63.476562 0)"/>
      <use xlink:href="#DejaVuSans-74" transform="translate(124.755859 0)"/>
      <use xlink:href="#DejaVuSans-6f" transform="translate(163.964844 0)"/>
      <use xlink:href="#DejaVuSans-73" transform="translate(225.146484 0)"/>
     </g>
    </g>
   </g>
  </g>
 </g>
 <defs>
  <clipPath id="pc84416c862">
   <rect x="57.6" y="41.472" width="357.12" height="266.112"/>
  </clipPath>
 </defs>
</svg>
